<?xml version="1.0" encoding="UTF-8"?>
<svg version="1.1" xmlns="http://www.w3.org/2000/svg" width="1024" height="1024">
<path d="M0 0 C337.92 0 675.84 0 1024 0 C1024 337.92 1024 675.84 1024 1024 C686.08 1024 348.16 1024 0 1024 C0 686.08 0 348.16 0 0 Z " fill="#0E131C" transform="translate(0,0)"/>
<path d="M0 0 C3.26130887 1.72276656 6.34135127 3.68598145 9.4375 5.6875 C11.31970091 6.87857119 13.20253602 8.06864064 15.0859375 9.2578125 C16.05885742 9.8755957 17.03177734 10.49337891 18.03417969 11.12988281 C22.84351055 14.16243751 27.70192735 17.11302362 32.5625 20.0625 C33.52027344 20.64507568 34.47804688 21.22765137 35.46484375 21.82788086 C42.50748225 26.10742734 49.56857724 30.35590759 56.65258789 34.56665039 C58.13418485 35.45084763 59.60282321 36.35712098 61.05769348 37.28463745 C63.36199698 38.6280447 65.53998333 39.69616863 67.96914673 40.76014709 C78.74192074 45.86522637 78.74192074 45.86522637 80.83938026 51.09149551 C81.83526895 56.31595632 81.49785463 61.54445127 81.11274529 66.82204247 C80.89833319 69.84959898 80.79563151 72.86349047 80.72132874 75.89753723 C80.49063653 84.50123487 80.06062961 93.09166432 79.56567383 101.68383789 C76.91883176 124.47313725 76.91883176 124.47313725 83.27157593 145.34539795 C89.03384367 150.61771942 95.61248845 153.41353559 102.93930054 155.90396118 C106.99680686 157.3569573 110.36623364 159.42029794 113.93359375 161.796875 C115.57122681 162.79207153 115.57122681 162.79207153 117.24194336 163.80737305 C118.29647705 164.44843994 119.35101074 165.08950684 120.4375 165.75 C121.60866515 166.45832104 122.77997367 167.16640507 123.95141602 167.87426758 C129.20512639 171.05314651 134.43556831 174.2574263 139.59375 177.58984375 C140.83813843 178.38406738 140.83813843 178.38406738 142.10766602 179.19433594 C143.61036026 180.15739556 145.10390788 181.13495286 146.58569336 182.12988281 C148.73984952 183.56158625 148.73984952 183.56158625 152 185 C155.67551464 183.90419439 158.81086251 182.0309866 162.078125 180.05078125 C163.06103516 179.4578125 164.04394531 178.86484375 165.05664062 178.25390625 C166.11044922 177.61324219 167.16425781 176.97257813 168.25 176.3125 C169.93775248 175.29295973 171.6255083 174.27342492 173.31347656 173.25424194 C175.06056778 172.19875893 176.80671172 171.1417222 178.55273438 170.08447266 C184.88102621 166.25490264 191.22625608 162.45323781 197.57836914 158.66333008 C202.46928265 155.74080976 207.34408531 152.79823242 212.17440796 149.7767334 C213.89689557 148.70066479 215.6235056 147.63155073 217.3515625 146.56445312 C219.52808767 145.21750517 221.69652976 143.85738117 223.85546875 142.48242188 C224.83515625 141.87978516 225.81484375 141.27714844 226.82421875 140.65625 C227.68104248 140.11806641 228.53786621 139.57988281 229.4206543 139.02539062 C232.74250122 137.70482678 234.58360189 138.05543134 238 139 C240.16455078 140.03710938 240.16455078 140.03710938 242.1953125 141.34375 C242.97849854 141.83907227 243.76168457 142.33439453 244.56860352 142.84472656 C245.41221436 143.3909668 246.2558252 143.93720703 247.125 144.5 C249.01081218 145.69414121 250.89758117 146.88677235 252.78515625 148.078125 C253.79078613 148.71556641 254.79641602 149.35300781 255.83251953 150.00976562 C260.79044759 153.12499836 265.79797049 156.15790562 270.80789185 159.18847656 C272.56592555 160.25207243 274.32301681 161.31720857 276.07983398 162.3828125 C281.70949549 165.79708878 287.34179264 169.20700668 292.9745636 172.6161499 C295.58409271 174.19591315 298.19296437 175.77675999 300.80172729 177.35778809 C302.66019324 178.48346031 304.51965619 179.60747273 306.37915039 180.73144531 C307.49539795 181.40788086 308.61164551 182.08431641 309.76171875 182.78125 C310.75131592 183.38001953 311.74091309 183.97878906 312.76049805 184.59570312 C315 186 315 186 316 187 C316.1698789 189.93417304 316.27427708 192.84601253 316.33569336 195.78320312 C316.36964455 197.16625137 316.36964455 197.16625137 316.40428162 198.57723999 C316.60174727 207.10586287 316.71694806 215.63599454 316.80750179 224.16635895 C316.86930604 229.89931714 316.95784984 235.62904685 317.11108398 241.36035156 C317.25854768 246.89912433 317.3368337 252.43495977 317.36721992 257.97557068 C317.39050514 260.08419035 317.43809323 262.19269123 317.51078606 264.30018616 C318.03884547 280.34387575 318.03884547 280.34387575 314.67030716 284.73226929 C311.43671576 287.63450119 307.83631752 289.47798314 303.85957909 291.16228676 C300.72886902 292.57262596 297.90555776 294.42596373 295 296.25 C290.5302193 298.92822749 286.03748905 301.56784598 281.546875 304.2109375 C268.71767679 311.73216072 268.71767679 311.73216072 256.12109375 319.6328125 C252.94514132 321.67992733 249.87696285 323.64159645 246.36970901 325.07496643 C243.37872092 326.41955029 241.31682572 327.66319487 239 330 C237.47448 334.99337428 237.63034339 339.92528164 237.70605469 345.08984375 C237.69249523 346.63766592 237.67468486 348.1854558 237.6529541 349.73318481 C237.60742802 353.92812061 237.62500719 358.12059293 237.65674496 362.31557083 C237.68209794 366.70906367 237.65857331 371.10234831 237.6428833 375.49584961 C237.62469953 382.87359423 237.64863864 390.25033723 237.69628906 397.62792969 C237.75071385 406.15271866 237.73308457 414.6751162 237.67802501 423.19984722 C237.63261544 430.52420081 237.62625474 437.84783523 237.6524117 445.17228413 C237.66798735 449.54460656 237.67012576 453.91580558 237.63704681 458.28805542 C237.60811106 462.39973495 237.62826436 466.50833845 237.68598938 470.61968613 C237.69918935 472.12647267 237.69545035 473.6335191 237.67336273 475.14020157 C237.61432128 479.57740649 237.69043153 483.71591336 239 488 C241.98364874 491.00243361 245.12841401 492.40876272 249 494 C250.63961851 494.97418402 252.26478153 495.97355988 253.8671875 497.0078125 C254.68010254 497.5136084 255.49301758 498.0194043 256.33056641 498.54052734 C257.17022949 499.06340332 258.00989258 499.5862793 258.875 500.125 C266.92401378 505.12547329 275.02312521 510.03404166 283.16137695 514.88769531 C287.50686079 517.48479578 291.81111053 520.12516511 296.0625 522.875 C300.44899389 525.71169163 304.9643118 528.21545656 309.58984375 530.640625 C310.38519531 531.08921875 311.18054688 531.5378125 312 532 C312.69739792 532.33053879 313.39479584 532.66107758 314.11332703 533.00163269 C317.20777855 536.27928115 316.59808359 539.98828955 316.59692383 544.33325195 C316.61948494 545.76785767 316.61948494 545.76785767 316.64250183 547.23144531 C316.68567755 550.40057824 316.69828541 553.5688775 316.70703125 556.73828125 C316.72241992 558.93922747 316.73826984 561.14017051 316.75456238 563.34111023 C316.78305323 567.95884143 316.79443439 572.57627728 316.79614258 577.1940918 C316.80132281 583.10991849 316.86627791 589.0234353 316.94643116 594.93865681 C316.99843352 599.48637814 317.00970399 604.03354206 317.00964928 608.58153343 C317.01621535 610.76209038 317.03751187 612.94265474 317.07383156 615.12291908 C317.12034086 618.17648421 317.10978121 621.224856 317.08520508 624.27856445 C317.11127838 625.17800278 317.13735168 626.0774411 317.16421509 627.00413513 C317.10735191 629.62577218 316.95883272 631.55517855 316 634 C313.27408803 636.57421767 310.31302388 638.28074226 307 640 C306.14188721 640.55051025 305.28377441 641.10102051 304.3996582 641.66821289 C302.03879485 643.13547972 299.67749376 644.60189507 297.3125 646.0625 C295.94847046 646.90603027 295.94847046 646.90603027 294.55688477 647.76660156 C287.34587356 652.20814402 280.07637699 656.54402369 272.76098633 660.8112793 C267.31572335 663.99862131 261.93865389 667.27504716 256.59765625 670.6328125 C254.69146347 671.82224101 252.7844643 673.01036607 250.87722778 674.19812012 C249.63448941 674.97722311 248.39553251 675.76239353 247.16061401 676.55383301 C245.42873495 677.66326698 243.68492039 678.7512023 241.9375 679.8359375 C240.93589844 680.47063965 239.93429687 681.1053418 238.90234375 681.75927734 C235.33050965 683.28620037 233.69411194 683.10322307 230 682 C227.29370117 680.66821289 227.29370117 680.66821289 224.54296875 678.97265625 C223.52162842 678.35044189 222.50028809 677.72822754 221.44799805 677.0871582 C219.83405151 676.08495239 219.83405151 676.08495239 218.1875 675.0625 C215.92744114 673.68170584 213.66702377 672.30149833 211.40625 670.921875 C210.30667969 670.24705078 209.20710937 669.57222656 208.07421875 668.87695312 C204.13921707 666.4744521 200.17034753 664.13449185 196.1875 661.8125 C189.98147169 658.17666039 183.7968758 654.50602301 177.625 650.8125 C176.77566895 650.30605957 175.92633789 649.79961914 175.05126953 649.27783203 C171.47437089 647.13478547 167.92040515 644.98324887 164.46484375 642.6484375 C163.02818359 641.67777344 163.02818359 641.67777344 161.5625 640.6875 C160.38880859 639.85798828 160.38880859 639.85798828 159.19140625 639.01171875 C156.2597409 637.65824045 155.03854237 637.94924658 152 639 C149.85370814 640.17620092 147.7516075 641.43490396 145.6875 642.75 C145.11499512 643.11125977 144.54249023 643.47251953 143.95263672 643.84472656 C142.29770427 644.89009456 140.64870096 645.94483139 139 647 C137.54296167 647.91872368 136.08487589 648.835792 134.625 649.75 C133.71041016 650.32621094 133.71041016 650.32621094 132.77734375 650.9140625 C130.94009275 652.03660267 129.07147965 653.08313183 127.1875 654.125 C124.13572665 655.71970581 124.13572665 655.71970581 122.6328125 657.453125 C120.5216294 659.4531932 118.32567493 660.40408549 115.6875 661.625 C109.57699239 664.59528302 104.00698979 668.09961089 98.33984375 671.81640625 C95.39871589 673.73931908 92.44019253 675.61268389 89.4375 677.4375 C88.69371094 677.88996094 87.94992187 678.34242188 87.18359375 678.80859375 C84.84935089 680.08219674 82.4739086 681.03123773 80 682 C80.09326569 683.72862526 80.09326569 683.72862526 80.18841553 685.49217224 C80.75904855 696.41813299 81.17705609 707.34103919 81.45074081 718.27857876 C81.59622858 723.90180278 81.79283335 729.51290998 82.11230469 735.12915039 C84.1851821 772.53248993 84.1851821 772.53248993 77.34567261 780.65570068 C71.20154928 786.61480491 63.46816128 789.78951581 55.51991272 792.6439209 C50.14270383 794.71554062 45.42561231 797.69563906 40.5625 800.75 C38.79851201 801.79404434 37.03195193 802.83376761 35.26171875 803.8671875 C29.7524981 807.12801992 24.31089929 810.49376289 18.875 813.875 C17.14328609 814.94800854 15.41151761 816.02092901 13.6796875 817.09375 C10.84311369 818.85162673 8.01562037 820.62243951 5.1953125 822.40625 C4.14085937 823.0559375 3.08640625 823.705625 2 824.375 C1.13375 824.91898438 0.2675 825.46296875 -0.625 826.0234375 C-3.65044562 827.26745297 -4.9221985 827.06358278 -8 826 C-10.00074845 824.90766937 -11.95609603 823.73044224 -13.875 822.5 C-15.03719188 821.76472558 -16.19997505 821.03038513 -17.36328125 820.296875 C-17.96350098 819.91595703 -18.5637207 819.53503906 -19.18212891 819.14257812 C-22.11489948 817.29925738 -25.08804298 815.5249823 -28.0625 813.75 C-29.34117229 812.98441918 -30.61981724 812.21879271 -31.8984375 811.453125 C-33.26558719 810.63535345 -34.632776 809.8176473 -36 809 C-47.0516813 802.3899281 -58.08812796 795.75469132 -69.10391235 789.08496094 C-70.36029055 788.32463485 -71.61710119 787.56502283 -72.87435913 786.80615234 C-74.64666233 785.73610921 -76.41727541 784.66332119 -78.1875 783.58984375 C-79.21230469 782.96972412 -80.23710937 782.34960449 -81.29296875 781.71069336 C-82.63294922 780.86390015 -82.63294922 780.86390015 -84 780 C-84.70646667 779.65660583 -85.41293335 779.31321167 -86.14080811 778.95941162 C-89.14098241 775.79751294 -88.52172191 772.06491163 -88.45410156 767.9387207 C-88.45468567 767.01169342 -88.45526978 766.08466614 -88.45587158 765.12954712 C-88.45308183 762.06124604 -88.42194747 758.9939129 -88.390625 755.92578125 C-88.38316579 753.80015087 -88.37747135 751.67451361 -88.37347412 749.5488739 C-88.35819268 743.95092828 -88.31888897 738.35339701 -88.2746582 732.75561523 C-88.23375976 727.04481614 -88.2154747 721.33395017 -88.1953125 715.62304688 C-88.15239737 704.41518242 -88.08411549 693.20762565 -88 682 C-88.93210297 681.70130508 -89.86420593 681.40261017 -90.82455444 681.09486389 C-94.12693861 679.95623276 -96.75589473 678.51374172 -99.7265625 676.68359375 C-100.82734131 676.00997803 -101.92812012 675.3363623 -103.06225586 674.64233398 C-104.24987989 673.90745824 -105.43746015 673.17251177 -106.625 672.4375 C-107.86232316 671.67783378 -109.10004175 670.91881128 -110.33813477 670.16040039 C-112.92013044 668.5781274 -115.50038819 666.99307288 -118.07958984 665.40625 C-121.91576409 663.04860745 -125.76255387 660.7087808 -129.61328125 658.375 C-130.23100403 658.00061295 -130.84872681 657.62622589 -131.48516846 657.24049377 C-132.70927587 656.49879128 -133.93343682 655.75717714 -135.15765381 655.01565552 C-137.96919042 653.31254559 -140.77978734 651.60789479 -143.58984375 649.90234375 C-144.64155762 649.27054199 -145.69327148 648.63874023 -146.77685547 647.98779297 C-149.0556499 646.58240407 -151.27702369 645.15414514 -153.49267578 643.65673828 C-154.07005997 643.2759462 -154.64744415 642.89515411 -155.24232483 642.50282288 C-156.84740708 641.44108528 -158.43894803 640.35895823 -160.02954102 639.27563477 C-162.95758517 637.68367158 -162.95758517 637.68367158 -166.10595703 638.63452148 C-168.6171846 639.81937856 -170.9985034 641.01719604 -173.36328125 642.46875 C-174.55630859 643.19384766 -174.55630859 643.19384766 -175.7734375 643.93359375 C-176.61132812 644.45050781 -177.44921875 644.96742188 -178.3125 645.5 C-180.11027448 646.59441162 -181.90845799 647.6881516 -183.70703125 648.78125 C-185.04822021 649.59916016 -185.04822021 649.59916016 -186.41650391 650.43359375 C-190.08903565 652.66029604 -193.791942 654.83316042 -197.5 657 C-203.73039689 660.65107905 -209.93417696 664.34472286 -216.125 668.0625 C-216.96216553 668.56499268 -217.79933105 669.06748535 -218.66186523 669.58520508 C-222.61145328 671.95773686 -226.55728586 674.33617387 -230.49609375 676.7265625 C-231.18622559 677.14413818 -231.87635742 677.56171387 -232.58740234 677.99194336 C-233.86660815 678.76626608 -235.14437577 679.54297181 -236.42041016 680.32250977 C-238.93796009 681.84462377 -241.19620352 683.06540117 -244 684 C-245.84326172 683.21826172 -245.84326172 683.21826172 -247.9296875 681.9296875 C-248.71335693 681.45249268 -249.49702637 680.97529785 -250.30444336 680.48364258 C-251.5768689 679.6873645 -251.5768689 679.6873645 -252.875 678.875 C-253.76775635 678.32803467 -254.6605127 677.78106934 -255.58032227 677.2175293 C-258.39412417 675.48976484 -261.19830119 673.7473119 -264 672 C-267.3120458 669.93676884 -270.62436304 667.87397865 -273.9375 665.8125 C-274.77829102 665.28817383 -275.61908203 664.76384766 -276.48535156 664.22363281 C-285.4843696 658.64179606 -294.629149 653.31181717 -303.78881836 647.99926758 C-323.38732267 636.61267733 -323.38732267 636.61267733 -326 634 C-326.22856269 631.00692407 -326.3911994 628.03480872 -326.51025391 625.03662109 C-326.55055725 624.09496597 -326.5908606 623.15331085 -326.63238525 622.18312073 C-326.98737883 613.44853162 -327.20464362 604.71098312 -327.37743568 595.9710598 C-327.49634512 590.10039375 -327.66192982 584.23944162 -327.94091797 578.37402344 C-329.75224722 539.31119547 -329.75224722 539.31119547 -323.67376709 531.48248291 C-317.93069655 526.12108017 -311.41191386 523.3611732 -303.99688721 521.00213623 C-300.06446423 519.68716397 -297.07133388 517.84953646 -293.6171875 515.5703125 C-292.16070801 514.69644897 -292.16070801 514.69644897 -290.67480469 513.80493164 C-288.69883662 512.61931634 -286.7229311 511.4335968 -284.74707031 510.24780273 C-280.35091567 507.60962746 -275.954558 504.97181816 -271.5546875 502.33984375 C-270.89871582 501.94716309 -270.24274414 501.55448242 -269.56689453 501.14990234 C-267.93557359 500.17356487 -266.30375606 499.19805724 -264.671875 498.22265625 C-263.87301896 497.71387562 -263.87301896 497.71387562 -263.05802441 497.19481659 C-261 496 -261 496 -257.85278034 494.5747757 C-250.85977763 491.15085099 -250.85977763 491.15085099 -246.79923058 484.74655151 C-246.35569596 480.64139287 -246.32276077 476.70741627 -246.43237305 472.58789062 C-246.42617033 471.03004805 -246.41424739 469.47221939 -246.39706421 467.91445923 C-246.36670407 463.70271442 -246.41597577 459.49527826 -246.47994971 455.2840519 C-246.53322782 450.87710935 -246.51274159 446.47051266 -246.50019836 442.06335449 C-246.48761691 433.72597106 -246.5410311 425.39037903 -246.61836988 417.05339766 C-246.70321826 407.55882257 -246.71417533 398.06460738 -246.71903551 388.56970692 C-246.73067907 369.04573966 -246.83475904 349.5232412 -247 330 C-247.77792908 329.69627975 -248.55585815 329.39255951 -249.35736084 329.07963562 C-251.97890269 328.00861919 -254.2334606 326.75594281 -256.640625 325.26953125 C-257.53394531 324.72127686 -258.42726563 324.17302246 -259.34765625 323.6081543 C-260.30542969 323.01558838 -261.26320313 322.42302246 -262.25 321.8125 C-264.3172496 320.54352321 -266.384975 319.2753213 -268.453125 318.0078125 C-270.0628418 317.02022949 -270.0628418 317.02022949 -271.70507812 316.01269531 C-277.11791746 312.70627508 -282.55838041 309.44626458 -288 306.1875 C-289.57950439 305.24064331 -289.57950439 305.24064331 -291.19091797 304.2746582 C-295.63272526 301.61272405 -300.07615765 298.95356243 -304.5234375 296.30078125 C-305.18730469 295.90415283 -305.85117187 295.50752441 -306.53515625 295.09887695 C-308.19711657 294.10624381 -309.86020968 293.11550788 -311.5234375 292.125 C-312.04669617 291.78340347 -312.56995483 291.44180695 -313.10906982 291.08985901 C-315.07125952 289.88942909 -315.07125952 289.88942909 -317.67462158 289.00376892 C-321.24887101 287.39017997 -323.38861464 285.9549742 -326 283 C-328.35561816 276.35409433 -327.94431592 268.83817455 -328.0234375 261.87890625 C-328.07154355 259.77487755 -328.12051818 257.67086855 -328.1703186 255.56687927 C-328.25866622 251.15583109 -328.29908545 246.74707873 -328.31298828 242.33520508 C-328.33443676 237.82915543 -328.4451797 233.33993807 -328.64111328 228.83813477 C-330.24088159 191.49205523 -330.24088159 191.49205523 -323.37823486 183.42971802 C-317.42250803 177.7241502 -309.97739652 174.77178987 -302.25007629 172.17668152 C-297.61818547 170.49971771 -293.70825174 168.02396753 -289.625 165.3125 C-288.2176821 164.44200903 -286.80786783 163.57552831 -285.39453125 162.71484375 C-281.27263057 160.17154333 -277.15633797 157.61920835 -273.04077148 155.06567383 C-270.36820502 153.40951967 -267.69204229 151.7592964 -265.015625 150.109375 C-261.83938735 148.1493626 -258.6846281 146.16159877 -255.546875 144.140625 C-254.21883627 143.3019467 -252.89071697 142.46339598 -251.5625 141.625 C-250.97831299 141.23747559 -250.39412598 140.84995117 -249.79223633 140.45068359 C-247.07788994 138.75904779 -245.404768 137.97137084 -242.17993164 138.19946289 C-238.61007454 139.09816243 -236.11618064 140.45239508 -232.9921875 142.39453125 C-232.4336911 142.73772903 -231.8751947 143.08092682 -231.29977417 143.43452454 C-229.48590067 144.55170821 -227.68060757 145.68201557 -225.875 146.8125 C-224.60903811 147.59527376 -223.34242973 148.37700286 -222.07519531 149.15771484 C-219.54567434 150.71672969 -217.01864336 152.27966271 -214.49316406 153.84521484 C-209.94410227 156.65898967 -205.34893431 159.39375725 -200.75 162.125 C-192.03970019 167.31932403 -183.44325228 172.69095069 -174.86621094 178.10205078 C-173.89973633 178.71032715 -172.93326172 179.31860352 -171.9375 179.9453125 C-171.08027344 180.48687988 -170.22304688 181.02844727 -169.33984375 181.58642578 C-165.28947914 184.21216896 -165.28947914 184.21216896 -160.6875 184.890625 C-157.10528616 183.70349599 -154.13562391 181.79910753 -151 179.75 C-149.57204078 178.8378741 -148.14363198 177.92645176 -146.71484375 177.015625 C-145.57378174 176.28375977 -145.57378174 176.28375977 -144.40966797 175.53710938 C-140.15074565 172.82037433 -135.85705058 170.15993163 -131.5625 167.5 C-130.67296631 166.94828125 -129.78343262 166.3965625 -128.86694336 165.828125 C-122.70233658 162.01758355 -116.49346931 158.29231164 -110.20727539 154.68554688 C-108.96044132 153.96399711 -107.72763372 153.21768754 -106.50973511 152.44830322 C-104 151 -104 151 -100.53407288 149.50152588 C-96.48029484 147.59240892 -92.80124242 145.5763052 -90 142 C-88.01011971 136.3794905 -88.76446512 130.18817955 -89.19041061 124.34481812 C-89.4021772 121.32161162 -89.5110312 118.30988295 -89.59243774 115.28051758 C-89.83825294 106.68587111 -90.2384625 98.10357351 -90.77050781 89.52197266 C-92.93738395 53.10877979 -92.93738395 53.10877979 -86.34631348 45.40429688 C-80.14823219 39.47294992 -72.35767225 36.22570685 -64.40968323 33.32055664 C-59.55967317 31.4421672 -55.35276684 28.80991836 -51 26 C-49.43668347 25.0573568 -47.87059896 24.11927634 -46.30078125 23.1875 C-42.12281631 20.68088465 -37.95632842 18.15576291 -33.79296875 15.625 C-33.16520538 15.2434375 -32.53744202 14.861875 -31.89065552 14.46875 C-28.19409356 12.22133681 -24.49909581 9.97137265 -20.80496216 7.7199707 C-19.15863139 6.71979719 -17.50785062 5.72696002 -15.85693359 4.734375 C-14.16672174 3.70828843 -12.48731875 2.66337592 -10.83447266 1.578125 C-6.78612253 -1.01069128 -4.56955427 -1.60245831 0 0 Z " fill="#4187B4" transform="translate(521,103)"/>
<path d="M0 0 C2.14282227 1.03710938 2.14282227 1.03710938 4.31640625 2.34375 C5.14881836 2.83955566 5.98123047 3.33536133 6.83886719 3.84619141 C8.18706543 4.66482666 8.18706543 4.66482666 9.5625 5.5 C10.51415039 6.07024902 11.46580078 6.64049805 12.44628906 7.22802734 C15.63610576 9.14345339 18.81848546 11.07081852 22 13 C23.15923146 13.70102991 24.31857581 14.40187319 25.47802734 15.10253906 C32.58020815 19.39550072 39.67228174 23.70483366 46.75830078 28.02441406 C49.75281041 29.84935546 52.74913857 31.6712661 55.74609375 33.4921875 C57.39332004 34.49464236 59.04046255 35.4972349 60.6875 36.5 C61.42967773 36.95068848 62.17185547 37.40137695 62.93652344 37.86572266 C67.88497346 40.88497346 67.88497346 40.88497346 69 42 C69.23361395 44.77386827 69.40160186 47.52537233 69.52612305 50.30493164 C69.5889875 51.61259239 69.5889875 51.61259239 69.65312195 52.94667053 C70.02270534 61.04093729 70.24907694 69.13856767 70.42924786 77.23906803 C70.55326525 82.67896513 70.7256141 88.10751246 71.01635742 93.54125977 C72.90327753 129.71395741 72.90327753 129.71395741 66.54922485 137.48059082 C60.90462321 143.09420558 53.75171936 146.02378033 46.35253906 148.68186951 C40.92321175 150.81653871 36.19377024 153.96897705 31.3125 157.125 C29.41990126 158.28264854 27.52444378 159.43564847 25.625 160.58203125 C20.95999043 163.41608917 16.29733868 166.25399483 11.63549805 169.09326172 C4.47194137 173.45595013 -2.6936798 177.81522057 -9.86328125 182.16796875 C-10.44837967 182.52321625 -11.03347809 182.87846375 -11.63630676 183.24447632 C-14.60339533 185.04577516 -17.57095862 186.84628513 -20.53930664 188.64550781 C-26.30987452 192.14440055 -32.07277411 195.65477983 -37.8203125 199.19140625 C-38.88507813 199.84496094 -39.94984375 200.49851562 -41.046875 201.171875 C-43.05694581 202.40648702 -45.06486185 203.64461603 -47.0703125 204.88671875 C-47.9571875 205.43070313 -48.8440625 205.9746875 -49.7578125 206.53515625 C-50.5327002 207.013479 -51.30758789 207.49180176 -52.10595703 207.98461914 C-54 209 -54 209 -56 209 C-55.98525131 209.77930311 -55.97050262 210.55860622 -55.95530701 211.36152458 C-55.60150055 230.34971996 -55.33697657 249.33725526 -55.17100525 268.3280468 C-55.08860088 277.51222184 -54.97633242 286.69419311 -54.79296875 295.87695312 C-54.63316514 303.88367486 -54.53019661 311.88880077 -54.49458408 319.89707291 C-54.47377151 324.135967 -54.42512698 328.37029746 -54.30831909 332.60772324 C-53.62555151 358.360393 -53.62555151 358.360393 -57.5329895 364.34980011 C-61.17334195 367.88494031 -65.17499538 369.69907414 -69.95399475 371.23857498 C-73.37913853 372.51324921 -76.09233596 374.57461371 -79.0625 376.6875 C-82.52971304 379.03390567 -84.20992984 380.00992097 -88.421875 379.95703125 C-92.4587757 378.87729253 -95.68023804 377.19428697 -99.1875 375 C-99.89672607 374.56993652 -100.60595215 374.13987305 -101.33666992 373.69677734 C-102.96290381 372.70887033 -104.58581025 371.71547324 -106.20605469 370.71777344 C-109.34031454 368.79076782 -112.48555202 366.88221832 -115.6328125 364.9765625 C-119.84006375 362.42785132 -124.04542295 359.87609304 -128.24760437 357.31903076 C-135.02828516 353.19302791 -141.8196019 349.08512837 -148.625 345 C-149.86793823 344.25290771 -149.86793823 344.25290771 -151.13598633 343.49072266 C-152.26363403 342.81468994 -152.26363403 342.81468994 -153.4140625 342.125 C-154.38786865 341.54105469 -154.38786865 341.54105469 -155.38134766 340.9453125 C-156.5639123 340.25468048 -157.77511414 339.61244293 -159 339 C-159.44463761 318.47723894 -159.77926675 297.95527593 -159.98443127 277.42866898 C-160.08224546 267.89660522 -160.21547504 258.36754029 -160.43334961 248.83740234 C-160.62325507 240.52668147 -160.74542159 232.21813208 -160.7876814 223.90530181 C-160.81237669 219.50576887 -160.8699826 215.1124449 -161.00887108 210.71491241 C-161.82148508 183.97640783 -161.82148508 183.97640783 -157.13236809 177.3678875 C-152.7177046 173.260735 -147.83138203 170.83650636 -142.19304562 168.81611919 C-139.40003671 167.77672988 -137.01673448 166.30840865 -134.54296875 164.66015625 C-133.09264618 163.79176016 -131.64086183 162.9257999 -130.1875 162.0625 C-128.97574097 161.33873169 -128.97574097 161.33873169 -127.73950195 160.6003418 C-120.47527788 156.2673812 -113.19247092 151.96545805 -105.90405273 147.67333984 C-101.70417372 145.19856594 -97.51221269 142.71353871 -93.34765625 140.1796875 C-92.64874268 139.75518311 -91.9498291 139.33067871 -91.22973633 138.89331055 C-89.94726148 138.11218547 -88.66699626 137.3274162 -87.3894043 136.53833008 C-83.2200236 134 -83.2200236 134 -81 134 C-81.0566256 132.38293404 -81.0566256 132.38293404 -81.11439514 130.73320007 C-81.46004079 120.53945177 -81.71431021 110.34690052 -81.88080692 100.14860821 C-81.96929609 94.90573944 -82.08911279 89.66762275 -82.2824707 84.42749023 C-82.46815995 79.36308136 -82.56900822 74.30321764 -82.61291313 69.23566628 C-82.64416344 67.30980626 -82.70520776 65.38417722 -82.79741096 63.46027184 C-83.46994022 48.83630322 -83.46994022 48.83630322 -79.38322067 44.14340591 C-75.37446043 40.7692948 -70.9469402 38.35633391 -66.23856926 36.10067081 C-62.61831046 34.32064405 -59.19963642 32.21125405 -55.75 30.125 C-54.33400066 29.29963532 -52.91749902 28.47513018 -51.5 27.65234375 C-46.53296024 24.74499623 -41.63992682 21.72225325 -36.75 18.6875 C-35.44530762 17.88119141 -35.44530762 17.88119141 -34.11425781 17.05859375 C-29.43907953 14.16255671 -24.79218802 11.22895427 -20.171875 8.24609375 C-19.2221582 7.63999268 -18.27244141 7.0338916 -17.29394531 6.40942383 C-15.46773936 5.24307121 -13.64897452 4.06496277 -11.83886719 2.8737793 C-11.01547852 2.35082275 -10.19208984 1.82786621 -9.34375 1.2890625 C-8.26383789 0.58837646 -8.26383789 0.58837646 -7.16210938 -0.12646484 C-4.3267184 -1.27201915 -2.89095212 -0.91364597 0 0 Z " fill="#101822" transform="translate(443,253)"/>
<path d="M0 0 C2.13037109 1.0847168 2.13037109 1.0847168 4.2734375 2.44921875 C5.08603027 2.96025146 5.89862305 3.47128418 6.73583984 3.99780273 C8.04222412 4.83420288 8.04222412 4.83420288 9.375 5.6875 C11.27026293 6.88111452 13.16611693 8.07379093 15.0625 9.265625 C16.53203125 10.1927832 16.53203125 10.1927832 18.03125 11.13867188 C22.78402671 14.1185378 27.57881546 17.02820405 32.375 19.9375 C33.79014893 20.79819092 33.79014893 20.79819092 35.23388672 21.67626953 C40.25822385 24.73171316 45.28744349 27.77894435 50.3203125 30.8203125 C51.87226318 31.76015991 51.87226318 31.76015991 53.45556641 32.71899414 C55.42778021 33.91323523 57.40133098 35.10527231 59.37646484 36.29467773 C60.27316895 36.83809814 61.16987305 37.38151855 62.09375 37.94140625 C62.87427734 38.41263916 63.65480469 38.88387207 64.45898438 39.36938477 C65.29751953 39.90748779 66.13605469 40.44559082 67 41 C67.5793096 41.31572023 68.15861919 41.63144047 68.75548363 41.95672798 C70.76051661 43.16190981 72.37449153 44.31229391 74 46 C74.65137519 49.16558405 74.82569354 51.28305405 74.68017578 54.42700195 C74.67006973 55.26344238 74.65996368 56.09988281 74.64955139 56.96166992 C74.6240761 58.77344538 74.58295977 60.5850539 74.52795792 62.39617348 C74.44443407 65.26848989 74.40986998 68.13761706 74.38912964 71.0110321 C74.32239532 79.17583419 74.17545773 87.33812363 73.9765625 95.50073242 C73.85817076 100.49948883 73.80348483 105.49576129 73.78698349 110.49584007 C73.76765326 112.39595692 73.72370695 114.29599448 73.65427017 116.19494057 C73.22474616 124.7329956 73.22474616 124.7329956 75 133 C78.91075592 137.05025248 82.8095558 138.81009398 88 141 C90.14049794 142.27577913 92.26364988 143.5816222 94.359375 144.9296875 C105.85827262 152.03233914 117.39014053 159.05950551 129.06640625 165.86767578 C132.45196429 167.85027909 135.82099871 169.86025352 139.1875 171.875 C139.78780029 172.23263428 140.38810059 172.59026855 141.0065918 172.95874023 C142.67812305 173.96080677 144.33926256 174.98014451 146 176 C147.04033197 176.56916327 148.08066395 177.13832653 149.15252113 177.72473717 C152 180 152 180 152.78297997 182.93180275 C152.7982303 184.08027372 152.81348064 185.2287447 152.82919312 186.41201782 C152.84560872 187.05358114 152.86202432 187.69514445 152.87893736 188.35614908 C152.92625827 190.50440966 152.93073204 192.65057062 152.93505859 194.79931641 C152.95956375 196.34035068 152.98646896 197.88134838 153.01559448 199.42230225 C153.08572048 203.60859286 153.11621669 207.79425281 153.13526869 211.98105669 C153.14842501 214.59907723 153.16911678 217.21693095 153.19227982 219.83488083 C153.2717754 228.97575611 153.31579635 238.11612743 153.33154297 247.25732422 C153.34726802 255.7657236 153.4456305 264.27050806 153.58167398 272.77775443 C153.69450602 280.09014434 153.74537487 287.40133636 153.74943793 294.71458948 C153.75311266 299.0793002 153.78213789 303.44020365 153.87507248 307.80400467 C154.4056829 334.27429114 154.4056829 334.27429114 150.44987297 340.40069962 C146.814121 343.96831911 142.82038295 345.82012426 138.00196838 347.31188774 C134.82328412 348.40445825 132.2433835 350.155511 129.42578125 351.9765625 C127.38882612 353.19405666 125.35106777 354.41020798 123.3125 355.625 C113.56478269 361.45227568 113.56478269 361.45227568 103.875 367.375 C102.92238281 367.95894531 101.96976563 368.54289062 100.98828125 369.14453125 C98.67807819 370.57897106 96.38994613 372.03730829 94.10546875 373.51171875 C92.7580227 374.36231224 91.4103696 375.21257784 90.0625 376.0625 C89.44681152 376.46968262 88.83112305 376.87686523 88.19677734 377.29638672 C85.36079907 379.06431961 83.53333894 380.03677094 80.15649414 379.80395508 C76.6628166 378.91411981 74.16086888 377.60193548 71.0859375 375.7265625 C69.99539063 375.0665625 68.90484375 374.4065625 67.78125 373.7265625 C66.64581456 373.02607209 65.51039807 372.32555098 64.375 371.625 C63.23227632 370.93145812 62.08905103 370.23874199 60.9453125 369.546875 C57.94717755 367.7209966 54.95505464 365.89482344 52 364 C51.2951862 363.59714374 50.59037239 363.19428747 49.86420059 362.77922344 C48 361 48 361 47.50780869 358.24139881 C47.51333944 356.55313496 47.51333944 356.55313496 47.51898193 354.83076477 C47.51348328 353.53927521 47.50798462 352.24778564 47.50231934 350.91716003 C47.51647603 349.48293698 47.53101527 348.04871766 47.54589844 346.61450195 C47.54702653 345.10668976 47.5463938 343.59887537 47.54412842 342.09106445 C47.54297883 337.99407356 47.56652726 333.89754931 47.59442425 329.80066705 C47.61939743 325.52055226 47.62177667 321.24042726 47.62652588 316.96025085 C47.6389677 308.85353246 47.67180554 300.74702935 47.71192384 292.64040583 C47.7566041 283.41200537 47.77861914 274.18359472 47.79870558 264.95511305 C47.84053719 245.96995323 47.91091259 226.98499391 48 208 C47.05060043 207.69092712 46.10120087 207.38185425 45.12303162 207.06341553 C42.54436664 206.1853609 40.56797196 205.32165333 38.28515625 203.890625 C37.61162109 203.47337158 36.93808594 203.05611816 36.24414062 202.6262207 C35.52419922 202.17206787 34.80425781 201.71791504 34.0625 201.25 C32.44950993 200.24822893 30.83621399 199.24695023 29.22265625 198.24609375 C28.37203613 197.71612793 27.52141602 197.18616211 26.64501953 196.64013672 C22.11633912 193.8319703 17.55600801 191.07601878 13 188.3125 C4.58477752 183.19789274 -3.80597084 178.04460459 -12.1875 172.875 C-19.86738823 168.13883355 -27.56537081 163.43788264 -35.3125 158.8125 C-42.3040033 154.63638626 -49.25963711 150.40593389 -56.1875 146.125 C-57.03675049 145.60139893 -57.88600098 145.07779785 -58.76098633 144.53833008 C-59.57591553 144.03325928 -60.39084473 143.52818848 -61.23046875 143.0078125 C-62.28850708 142.35256592 -62.28850708 142.35256592 -63.36791992 141.68408203 C-64.23650635 141.12833496 -65.10509277 140.57258789 -66 140 C-67.1144902 139.60458763 -67.1144902 139.60458763 -68.25149536 139.20118713 C-71.34601434 137.81566904 -72.91203043 136.70422899 -75 134 C-76.89889748 127.41136381 -76.41476135 120.17612055 -76.40625 113.38671875 C-76.42756454 111.33175288 -76.45066298 109.2768048 -76.47546387 107.22187805 C-76.51577839 102.91670115 -76.52051889 98.61317399 -76.50292969 94.30786133 C-76.48525158 88.80387504 -76.57690609 83.30784015 -76.69828033 77.80539227 C-76.77605915 73.56089588 -76.78453282 69.3183014 -76.77360535 65.07319069 C-76.77866804 63.04572389 -76.80749683 61.01816581 -76.86103821 58.99139977 C-77.22232766 43.62212146 -77.22232766 43.62212146 -73.56559753 39.30755043 C-69.99741133 36.36717865 -66.03122901 34.47749612 -61.7716217 32.73949242 C-59.6188647 31.84091036 -57.69146816 30.70578417 -55.72460938 29.45629883 C-54.05108398 28.46666138 -54.05108398 28.46666138 -52.34375 27.45703125 C-51.05181041 26.69178037 -49.75990067 25.92647908 -48.46801758 25.16113281 C-46.45420137 23.96873793 -44.43997821 22.77704674 -42.42489624 21.58679199 C-35.23217427 17.33764169 -28.0609598 13.06791414 -20.98828125 8.62109375 C-19.93640625 7.96326904 -18.88453125 7.30544434 -17.80078125 6.62768555 C-15.85661249 5.40606774 -13.91992336 4.17243677 -11.9921875 2.92504883 C-10.70634766 2.11910278 -10.70634766 2.11910278 -9.39453125 1.296875 C-8.66081299 0.82604492 -7.92709473 0.35521484 -7.17114258 -0.12988281 C-4.32906171 -1.26888835 -2.89248378 -0.9244955 0 0 Z " fill="#101821" transform="translate(597,253)"/>
<path d="M0 0 C2.21503259 0.77591212 4.03041231 1.7375897 6.03466797 2.95825195 C6.80528564 3.42408691 7.57590332 3.88992188 8.36987305 4.36987305 C9.20156006 4.8798584 10.03324707 5.38984375 10.89013672 5.9152832 C11.76887451 6.44847168 12.6476123 6.98166016 13.55297852 7.53100586 C16.39747417 9.25847696 19.2375469 10.99308017 22.07763672 12.7277832 C23.95232814 13.86761379 25.82732732 15.00693837 27.70263672 16.14575195 C31.54190289 18.47837845 35.37901149 20.81449474 39.21435547 23.15356445 C43.11053487 25.52969519 47.00895779 27.90206647 50.90966797 30.27075195 C61.08394335 36.45098654 71.23140602 42.67052139 81.34204102 48.9543457 C88.35272377 53.30189033 95.41589097 57.55803125 102.50805664 61.77124023 C106.77998406 64.31582116 110.96977032 66.92546664 115.07763672 69.7277832 C110.57600599 73.56659714 105.66936625 76.5818203 100.64013672 79.6652832 C99.72361328 80.23013428 98.80708984 80.79498535 97.86279297 81.37695312 C90.21121383 86.07407146 82.49079943 90.65071187 74.75195312 95.20214844 C67.07693918 99.71706418 59.48486723 104.3502643 51.93261719 109.06762695 C37.67551931 117.96835293 23.27319355 126.59805009 8.79052734 135.12475586 C6.97538617 136.19730958 5.1792319 137.30263434 3.40332031 138.43896484 C1.07763672 139.7277832 1.07763672 139.7277832 -1.78955078 139.68481445 C-5.63877847 138.50892819 -8.72612208 136.62117593 -12.04736328 134.4152832 C-13.4811059 133.49161569 -14.91605625 132.56982085 -16.35205078 131.6496582 C-17.10196289 131.1669043 -17.851875 130.68415039 -18.62451172 130.18676758 C-22.42892732 127.77121428 -26.3004488 125.47050891 -30.17236328 123.1652832 C-38.58918346 118.13719368 -46.9796576 113.06656424 -55.35986328 107.9777832 C-55.94006226 107.62569794 -56.52026123 107.27361267 -57.11804199 106.91085815 C-63.30726759 103.15468162 -69.4869309 99.38395272 -75.64892578 95.58325195 C-81.02450883 92.27052 -86.43338503 89.01869431 -91.85986328 85.7902832 C-99.99187519 80.9346561 -108.00195435 75.92063409 -115.92236328 70.7277832 C-112.17061052 66.34031678 -107.36082514 63.87440891 -102.42236328 61.0402832 C-100.42792127 59.87915721 -98.43447935 58.71631216 -96.44189453 57.55200195 C-95.38309082 56.93373535 -94.32428711 56.31546875 -93.23339844 55.6784668 C-87.49020073 52.29488401 -81.80134209 48.82233036 -76.10986328 45.3527832 C-73.72741832 43.901658 -71.344584 42.45117422 -68.96142578 41.0012207 C-68.37319534 40.64331955 -67.7849649 40.2854184 -67.1789093 39.91667175 C-61.13177915 36.24104895 -55.05853992 32.60932979 -48.98486328 28.9777832 C-41.20353518 24.31953979 -33.44830033 19.6226953 -25.73486328 14.8527832 C-24.87779785 14.32378418 -24.02073242 13.79478516 -23.13769531 13.24975586 C-19.26863943 10.85017178 -15.43008686 8.42019949 -11.64892578 5.8840332 C-10.67862427 5.23797119 -10.67862427 5.23797119 -9.6887207 4.57885742 C-7.99706421 3.44476332 -6.31660513 2.29401458 -4.63720703 1.1418457 C-1.92236328 -0.2722168 -1.92236328 -0.2722168 0 0 Z " fill="#111822" transform="translate(516.92236328125,395.272216796875)"/>
<path d="M0 0 C0.33 0 0.66 0 1 0 C1 84.81 1 169.62 1 257 C2.65 257.66 4.3 258.32 6 259 C7.23934247 259.67773052 8.46230546 260.38656641 9.6640625 261.12890625 C10.31117188 261.52400391 10.95828125 261.91910156 11.625 262.32617188 C12.285 262.73416016 12.945 263.14214844 13.625 263.5625 C18.60633569 266.69341548 18.60633569 266.69341548 24 269 C24 269.66 24 270.32 24 271 C24.99386719 271.35384766 24.99386719 271.35384766 26.0078125 271.71484375 C29.83289584 273.35773203 33.30712095 275.42719377 36.875 277.5625 C37.62096436 278.00577637 38.36692871 278.44905273 39.13549805 278.90576172 C40.67608752 279.82212294 42.21571724 280.74009959 43.75439453 281.65966797 C45.84180465 282.90557812 47.93369265 284.14352206 50.02734375 285.37890625 C57.08562701 289.55972702 63.95907224 293.89474232 70.70703125 298.56640625 C72.83193291 300.17670959 72.83193291 300.17670959 75 300 C75 300.66 75 301.32 75 302 C75.7425 302.268125 76.485 302.53625 77.25 302.8125 C79.87667906 303.94674778 81.75921617 305.25238013 84 307 C83.10023438 307.49886719 82.20046875 307.99773437 81.2734375 308.51171875 C59.27040975 320.76900665 37.72373324 333.8527955 16.19140625 346.9140625 C15.49200928 347.33719727 14.7926123 347.76033203 14.07202148 348.19628906 C12.82127386 348.95348148 11.57195909 349.7130486 10.32446289 350.47558594 C7.88654043 351.9501034 5.71777894 353.09407369 3 354 C1.15673828 353.21826172 1.15673828 353.21826172 -0.9296875 351.9296875 C-1.71335693 351.45249268 -2.49702637 350.97529785 -3.30444336 350.48364258 C-4.15272705 349.95279053 -5.00101074 349.42193848 -5.875 348.875 C-6.76775635 348.32803467 -7.6605127 347.78106934 -8.58032227 347.2175293 C-11.39412417 345.48976484 -14.19830119 343.7473119 -17 342 C-20.3120458 339.93676884 -23.62436304 337.87397865 -26.9375 335.8125 C-27.77829102 335.28817383 -28.61908203 334.76384766 -29.48535156 334.22363281 C-38.4843696 328.64179606 -47.629149 323.31181717 -56.78881836 317.99926758 C-76.38732267 306.61267733 -76.38732267 306.61267733 -79 304 C-79.22856269 301.00692407 -79.3911994 298.03480872 -79.51025391 295.03662109 C-79.55055725 294.09496597 -79.5908606 293.15331085 -79.63238525 292.18312073 C-79.98737883 283.44853162 -80.20464362 274.71098312 -80.37743568 265.9710598 C-80.49634512 260.10039375 -80.66192982 254.23944162 -80.94091797 248.37402344 C-82.75224722 209.31119547 -82.75224722 209.31119547 -76.67376709 201.48248291 C-70.93069655 196.12108017 -64.41191386 193.3611732 -56.99688721 191.00213623 C-53.06446423 189.68716397 -50.07133388 187.84953646 -46.6171875 185.5703125 C-45.16070801 184.69644897 -45.16070801 184.69644897 -43.67480469 183.80493164 C-41.69883662 182.61931634 -39.7229311 181.4335968 -37.74707031 180.24780273 C-33.35091567 177.60962746 -28.954558 174.97181816 -24.5546875 172.33984375 C-23.89871582 171.94716309 -23.24274414 171.55448242 -22.56689453 171.14990234 C-20.93557359 170.17356487 -19.30375606 169.19805724 -17.671875 168.22265625 C-16.87301896 167.71387562 -16.87301896 167.71387562 -16.05802441 167.19481659 C-14 166 -14 166 -10.85278034 164.5747757 C-3.85977763 161.15085099 -3.85977763 161.15085099 0.20076942 154.74655151 C0.64430404 150.64139287 0.67723923 146.70741627 0.56762695 142.58789062 C0.57382967 141.03004805 0.58575261 139.47221939 0.60293579 137.91445923 C0.63329593 133.70271442 0.58402423 129.49527826 0.52005029 125.2840519 C0.46677218 120.87710935 0.48725841 116.47051266 0.49980164 112.06335449 C0.51238309 103.72597106 0.4589689 95.39037903 0.38163012 87.05339766 C0.29678174 77.55882257 0.28582467 68.06460738 0.28096449 58.56970692 C0.26932093 39.04573966 0.16524096 19.5232412 0 0 Z " fill="#3B347F" transform="translate(274,433)"/>
<path d="M0 0 C0.65227733 12.089581 1.14787674 24.17491545 1.45074081 36.27857876 C1.59622858 41.90180278 1.79283335 47.51290998 2.11230469 53.12915039 C4.1851821 90.53248993 4.1851821 90.53248993 -2.65432739 98.65570068 C-8.79845072 104.61480491 -16.53183872 107.78951581 -24.48008728 110.6439209 C-29.85729617 112.71554062 -34.57438769 115.69563906 -39.4375 118.75 C-41.20148799 119.79404434 -42.96804807 120.83376761 -44.73828125 121.8671875 C-50.2475019 125.12801992 -55.68910071 128.49376289 -61.125 131.875 C-62.85671391 132.94800854 -64.58848239 134.02092901 -66.3203125 135.09375 C-69.15688631 136.85162673 -71.98437963 138.62243951 -74.8046875 140.40625 C-75.85914063 141.0559375 -76.91359375 141.705625 -78 142.375 C-78.86625 142.91898438 -79.7325 143.46296875 -80.625 144.0234375 C-83.65044562 145.26745297 -84.9221985 145.06358278 -88 144 C-90.00074845 142.90766937 -91.95609603 141.73044224 -93.875 140.5 C-95.03719188 139.76472558 -96.19997505 139.03038513 -97.36328125 138.296875 C-97.96350098 137.91595703 -98.5637207 137.53503906 -99.18212891 137.14257812 C-102.11489948 135.29925738 -105.08804298 133.5249823 -108.0625 131.75 C-109.34117229 130.98441918 -110.61981724 130.21879271 -111.8984375 129.453125 C-113.26558719 128.63535345 -114.632776 127.8176473 -116 127 C-127.0516813 120.3899281 -138.08812796 113.75469132 -149.10391235 107.08496094 C-150.36029055 106.32463485 -151.61710119 105.56502283 -152.87435913 104.80615234 C-154.64666233 103.73610921 -156.41727541 102.66332119 -158.1875 101.58984375 C-159.72470703 100.65966431 -159.72470703 100.65966431 -161.29296875 99.71069336 C-162.18628906 99.14616455 -163.07960938 98.58163574 -164 98 C-164.70646667 97.65471252 -165.41293335 97.30942505 -166.14080811 96.95367432 C-169.12859775 93.81404795 -168.5220497 90.13252938 -168.45410156 86.03051758 C-168.45468567 85.11324387 -168.45526978 84.19597015 -168.45587158 83.25090027 C-168.45308196 80.21506069 -168.4219483 77.18019957 -168.390625 74.14453125 C-168.38316574 72.04132117 -168.37747132 69.93810415 -168.37347412 67.83488464 C-168.35819305 62.29612071 -168.31888968 56.75777558 -168.2746582 51.21917725 C-168.23375895 45.56870184 -168.21547452 39.91815885 -168.1953125 34.26757812 C-168.15239804 23.17820129 -168.08411662 12.08913546 -168 1 C-166.0714674 1.95289003 -164.14422338 2.90838828 -162.2175293 3.86499023 C-160.60747261 4.66271095 -160.60747261 4.66271095 -158.96488953 5.47654724 C-155.70742266 7.15033537 -152.8055165 8.95918249 -149.8125 11.0625 C-145.76392144 13.83672029 -141.7114215 16.34229274 -137.39453125 18.66796875 C-132.15032215 21.58522047 -127.09727832 24.83556248 -122 28 C-119.89628115 29.29239588 -117.79211553 30.58406483 -115.6875 31.875 C-112.07268462 34.09747458 -108.46587279 36.33120436 -104.87109375 38.5859375 C-104.16573486 39.02824707 -103.46037598 39.47055664 -102.73364258 39.92626953 C-101.3693757 40.78270753 -100.00587869 41.64037365 -98.64331055 42.49951172 C-97.38214797 43.29145307 -96.1173258 44.07760122 -94.84863281 44.85742188 C-93.60255472 45.62758107 -92.3675299 46.41587987 -91.14355469 47.22070312 C-88.50209494 48.88463725 -86.60324241 50.00643704 -83.4375 49.97265625 C-80.38295701 48.75377612 -77.77325839 47.2089188 -75 45.4375 C-73.85175612 44.71063154 -72.70331266 43.98407829 -71.5546875 43.2578125 C-70.96913086 42.88430664 -70.38357422 42.51080078 -69.78027344 42.12597656 C-68.03346161 41.02116359 -66.27448099 39.93991417 -64.5078125 38.8671875 C-57.8046871 34.82709052 -57.8046871 34.82709052 -51.375 30.375 C-48.74771959 28.43345358 -46.02353612 26.88605009 -43.140625 25.3515625 C-37.05055362 22.05868091 -31.08047853 18.5760099 -25.12890625 15.04101562 C-23.37169952 13.99804103 -21.61175013 12.95980907 -19.8515625 11.921875 C-13.98561254 8.45057242 -8.209473 4.90123649 -2.59619141 1.03125 C-1 0 -1 0 0 0 Z " fill="#5C3495" transform="translate(601,785)"/>
<path d="M0 0 C0.33 0 0.66 0 1 0 C0.9959358 0.80875895 0.9918716 1.61751789 0.98768425 2.45078468 C0.89222376 22.13098326 0.8519351 41.81062066 0.87302971 61.49105263 C0.88190098 71.00847308 0.87210905 80.52519067 0.81835938 90.04248047 C0.77155721 98.33798311 0.75979445 106.63266949 0.7900821 114.92826211 C0.80489706 119.3209822 0.80218372 123.71211253 0.75750351 128.10466385 C0.71598671 132.24065679 0.72137422 136.3739547 0.76252174 140.50992584 C0.76938225 142.02645646 0.75919917 143.54317617 0.73056984 145.05945206 C0.65186672 149.52056225 0.70630469 153.68583756 2 158 C4.98053098 161.01335732 8.12182672 162.41244176 12 164 C13.63976414 164.97393887 15.26495611 165.97328945 16.8671875 167.0078125 C17.68010254 167.5136084 18.49301758 168.0194043 19.33056641 168.54052734 C20.17022949 169.06340332 21.00989258 169.5862793 21.875 170.125 C29.92401378 175.12547329 38.02312521 180.03404166 46.16137695 184.88769531 C50.50686079 187.48479578 54.81111053 190.12516511 59.0625 192.875 C63.44899389 195.71169163 67.9643118 198.21545656 72.58984375 200.640625 C73.38519531 201.08921875 74.18054688 201.5378125 75 202 C75.69739792 202.33053879 76.39479584 202.66107758 77.11332703 203.00163269 C80.20777855 206.27928115 79.59808359 209.98828955 79.59692383 214.33325195 C79.61196457 215.28965576 79.62700531 216.24605957 79.64250183 217.23144531 C79.68567755 220.40057824 79.69828541 223.5688775 79.70703125 226.73828125 C79.72241992 228.93922747 79.73826984 231.14017051 79.75456238 233.34111023 C79.78305323 237.95884143 79.79443439 242.57627728 79.79614258 247.1940918 C79.80132281 253.10991849 79.86627791 259.0234353 79.94643116 264.93865681 C79.99843352 269.48637814 80.00970399 274.03354206 80.00964928 278.58153343 C80.01621535 280.76209038 80.03751187 282.94265474 80.07383156 285.12291908 C80.12034086 288.17648421 80.10978121 291.224856 80.08520508 294.27856445 C80.11127838 295.17800278 80.13735168 296.0774411 80.16421509 297.00413513 C80.10735191 299.62577218 79.95883272 301.55517855 79 304 C76.27408803 306.57421767 73.31302388 308.28074226 70 310 C69.14188721 310.55051025 68.28377441 311.10102051 67.3996582 311.66821289 C65.03879485 313.13547972 62.67749376 314.60189507 60.3125 316.0625 C59.40314697 316.62485352 58.49379395 317.18720703 57.55688477 317.76660156 C50.34587356 322.20814402 43.07637699 326.54402369 35.76098633 330.8112793 C30.31572335 333.99862131 24.93865389 337.27504716 19.59765625 340.6328125 C17.69146347 341.82224101 15.7844643 343.01036607 13.87722778 344.19812012 C12.63448941 344.97722311 11.39553251 345.76239353 10.16061401 346.55383301 C8.42873495 347.66326698 6.68492039 348.7512023 4.9375 349.8359375 C3.43509766 350.78799072 3.43509766 350.78799072 1.90234375 351.75927734 C-1.66949035 353.28620037 -3.30588806 353.10322307 -7 352 C-9.70629883 350.66821289 -9.70629883 350.66821289 -12.45703125 348.97265625 C-13.47837158 348.35044189 -14.49971191 347.72822754 -15.55200195 347.0871582 C-16.62796631 346.419021 -17.70393066 345.75088379 -18.8125 345.0625 C-21.07255886 343.68170584 -23.33297623 342.30149833 -25.59375 340.921875 C-26.69332031 340.24705078 -27.79289063 339.57222656 -28.92578125 338.87695312 C-32.86078293 336.4744521 -36.82965247 334.13449185 -40.8125 331.8125 C-69.42881067 315.04745956 -69.42881067 315.04745956 -83 306 C-82.2265625 305.55269531 -81.453125 305.10539062 -80.65625 304.64453125 C-75.84796032 301.85358093 -71.05387328 299.06664742 -66.375 296.0625 C-63 294 -63 294 -61 294 C-61 293.34 -61 292.68 -61 292 C-59.89205078 291.47212891 -59.89205078 291.47212891 -58.76171875 290.93359375 C-52.68419125 287.97591518 -46.94727371 284.80157286 -41.29296875 281.10546875 C-36.17267724 277.83164061 -30.93775722 274.75178779 -25.71728516 271.64111328 C-19.36242149 267.84397169 -13.07410316 263.95242318 -6.84887695 259.94604492 C-2.21502553 257 -2.21502553 257 0 257 C0 172.19 0 87.38 0 0 Z " fill="#3B3581" transform="translate(758,433)"/>
<path d="M0 0 C2.93408203 1.48364258 2.93408203 1.48364258 6.0078125 3.39453125 C6.5663089 3.73772903 7.1248053 4.08092682 7.70022583 4.43452454 C9.51409933 5.55170821 11.31939243 6.68201557 13.125 7.8125 C14.39096189 8.59527376 15.65757027 9.37700286 16.92480469 10.15771484 C19.45432566 11.71672969 21.98135664 13.27966271 24.50683594 14.84521484 C29.05589648 17.65898889 33.65102719 20.39382386 38.25 23.125 C46.90509154 28.28483555 55.44427564 33.62464677 63.95800781 39.01416016 C68.54995707 41.90821344 73.07063441 44.71912406 78 47 C70.8 53 70.8 53 66 53 C66 53.66 66 54.32 66 55 C64.68 55 63.36 55 62 55 C61.67 55.99 61.34 56.98 61 58 C59.20019531 59.32763672 59.20019531 59.32763672 56.828125 60.6796875 C55.94688965 61.18959229 55.0656543 61.69949707 54.15771484 62.22485352 C53.19816895 62.76940186 52.23862305 63.3139502 51.25 63.875 C49.22543923 65.04623759 47.20202864 66.21946525 45.1796875 67.39453125 C44.14682617 67.99346191 43.11396484 68.59239258 42.04980469 69.20947266 C37.44187674 71.91476753 32.90658654 74.73175865 28.375 77.5625 C19.00290927 83.40276993 9.55503777 89.10893779 0.0703125 94.76416016 C-0.61289062 95.1719873 -1.29609375 95.57981445 -2 96 C-2.85409958 96.33928024 -3.70819916 96.67856049 -4.58818054 97.02812195 C-7.41903482 98.89985057 -7.41903482 98.89985057 -7.63923645 102.85343933 C-7.67152817 104.49728574 -7.6761178 106.14180987 -7.65942383 107.78588867 C-7.66990753 108.68365524 -7.68039124 109.58142181 -7.69119263 110.50639343 C-7.72002082 113.47726677 -7.71364202 116.44698017 -7.70703125 119.41796875 C-7.72014157 121.47635871 -7.73544374 123.53473579 -7.75285339 125.59309387 C-7.79279403 131.01336416 -7.80289969 136.43329862 -7.80688477 141.85369873 C-7.81619912 147.38368985 -7.85360197 152.91348222 -7.88867188 158.44335938 C-7.95334005 169.29556356 -7.98650445 180.14762001 -8 191 C-11.43317162 189.65961595 -14.50243084 188.2073499 -17.640625 186.26953125 C-18.53394531 185.72127686 -19.42726563 185.17302246 -20.34765625 184.6081543 C-21.30542969 184.01558838 -22.26320313 183.42302246 -23.25 182.8125 C-25.3172496 181.54352321 -27.384975 180.2753213 -29.453125 179.0078125 C-31.0628418 178.02022949 -31.0628418 178.02022949 -32.70507812 177.01269531 C-38.11791746 173.70627508 -43.55838041 170.44626458 -49 167.1875 C-50.05300293 166.55626221 -51.10600586 165.92502441 -52.19091797 165.2746582 C-56.63272526 162.61272405 -61.07615765 159.95356243 -65.5234375 157.30078125 C-66.18730469 156.90415283 -66.85117188 156.50752441 -67.53515625 156.09887695 C-69.19711657 155.10624381 -70.86020968 154.11550788 -72.5234375 153.125 C-73.04669617 152.78340347 -73.56995483 152.44180695 -74.10906982 152.08985901 C-76.07125952 150.88942909 -76.07125952 150.88942909 -78.67462158 150.00376892 C-82.24887101 148.39017997 -84.38861464 146.9549742 -87 144 C-89.35561816 137.35409433 -88.94431592 129.83817455 -89.0234375 122.87890625 C-89.07154355 120.77487755 -89.12051818 118.67086855 -89.1703186 116.56687927 C-89.25866622 112.15583109 -89.29908545 107.74707873 -89.31298828 103.33520508 C-89.33443676 98.82915543 -89.4451797 94.33993807 -89.64111328 89.83813477 C-91.24088159 52.49205523 -91.24088159 52.49205523 -84.37823486 44.42971802 C-78.42250803 38.7241502 -70.97739652 35.77178987 -63.25007629 33.17668152 C-58.61818547 31.49971771 -54.70825174 29.02396753 -50.625 26.3125 C-49.2176821 25.44200903 -47.80786783 24.57552831 -46.39453125 23.71484375 C-42.27263057 21.17154333 -38.15633797 18.61920835 -34.04077148 16.06567383 C-31.36820502 14.40951967 -28.69204229 12.7592964 -26.015625 11.109375 C-22.83938735 9.1493626 -19.6846281 7.16159877 -16.546875 5.140625 C-15.21883627 4.3019467 -13.89071697 3.46339598 -12.5625 2.625 C-11.97831299 2.23747559 -11.39412598 1.84995117 -10.79223633 1.45068359 C-6.71773603 -1.08862776 -4.58399631 -1.15400567 0 0 Z " fill="#257799" transform="translate(282,242)"/>
<path d="M0 0 C2.24389648 1.0847168 2.24389648 1.0847168 4.37109375 2.44921875 C5.18070557 2.9604126 5.99031738 3.47160645 6.82446289 3.99829102 C8.11791626 4.83444946 8.11791626 4.83444946 9.4375 5.6875 C11.31970091 6.87857119 13.20253602 8.06864064 15.0859375 9.2578125 C16.05885742 9.8755957 17.03177734 10.49337891 18.03417969 11.12988281 C22.84351055 14.16243751 27.70192735 17.11302362 32.5625 20.0625 C33.52027344 20.64507568 34.47804688 21.22765137 35.46484375 21.82788086 C42.50748225 26.10742734 49.56857724 30.35590759 56.65258789 34.56665039 C58.13545924 35.45160817 59.60522375 36.35889463 61.06112671 37.28755188 C63.35685184 38.62524486 65.5164954 39.68129953 67.93824768 40.73391724 C78.62994853 45.77407189 78.62994853 45.77407189 80.91462517 51.15357971 C82.34899979 57.53459476 81.98330692 64.04516688 81.78125 70.5390625 C81.77383629 72.63226028 81.77349872 74.72549397 81.77990723 76.81869507 C81.77783873 82.3020284 81.68029263 87.77957668 81.56219482 93.26147461 C81.45857275 98.86540517 81.44611761 104.46947663 81.42578125 110.07421875 C81.37261702 121.05150712 81.21848722 132.02484372 81 143 C80.01 143 79.02 143 78 143 C77.46890625 142.44957031 76.9378125 141.89914063 76.390625 141.33203125 C72.95366829 137.97931367 68.93892015 135.98890121 64.75 133.6875 C56.81965883 129.24695052 49.05569973 124.60912706 41.375 119.75 C31.2738693 113.36354846 21.04496151 107.22603292 10.73193359 101.19042969 C9.64992676 100.55524414 8.56791992 99.92005859 7.453125 99.265625 C6.49567383 98.70649414 5.53822266 98.14736328 4.55175781 97.57128906 C2 96 2 96 -0.18798828 94.31884766 C-2.64637648 92.52954382 -4.0163504 92.5711574 -7 93 C-9.45354341 94.15784197 -9.45354341 94.15784197 -11.875 95.875 C-12.83148438 96.51050781 -13.78796875 97.14601563 -14.7734375 97.80078125 C-15.83820313 98.52652344 -16.90296875 99.25226563 -18 100 C-20.49653641 101.69267071 -22.99671353 103.37982835 -25.5 105.0625 C-26.14590088 105.4968335 -26.79180176 105.93116699 -27.45727539 106.37866211 C-31.82199542 109.28645041 -36.26976167 111.86398887 -40.9140625 114.3046875 C-49.5484081 119.04811281 -57.87370064 124.39569133 -66.203125 129.65234375 C-70.10043252 132.09255198 -74.11788949 134.24442362 -78.19140625 136.375 C-80.47122659 137.69406156 -82.54528536 139.06468997 -84.67553711 140.6015625 C-85.6120536 141.27566162 -85.6120536 141.27566162 -86.56748962 141.96337891 C-87.04021805 142.30546387 -87.51294647 142.64754883 -88 143 C-88.67555961 130.91065762 -89.18885203 118.8258682 -89.50255299 106.72142124 C-89.65324911 101.09773561 -89.85686578 95.48704464 -90.18774414 89.87084961 C-92.3356499 52.45133306 -92.3356499 52.45133306 -85.24429321 44.34732056 C-78.82724417 38.35956469 -70.78518172 35.2056271 -62.61190796 32.3706665 C-57.14362653 30.29553329 -52.439698 27.24619514 -47.5625 24.0625 C-45.73508797 22.94248636 -43.90470903 21.82728717 -42.0703125 20.71875 C-38.09152238 18.28973566 -34.12848085 15.83687818 -30.17243958 13.37110901 C-27.44168757 11.67392027 -24.70231644 9.99097684 -21.96139526 8.31027222 C-20.62254576 7.48484452 -19.2874347 6.65331904 -17.95632935 5.81546021 C-16.09341915 4.64371737 -14.21858177 3.49379559 -12.33984375 2.34765625 C-10.72130493 1.34230835 -10.72130493 1.34230835 -9.07006836 0.31665039 C-5.42075785 -1.24841773 -3.76667555 -1.12897981 0 0 Z " fill="#28C4CD" transform="translate(521,103)"/>
<path d="M0 0 C2.16455078 1.03710938 2.16455078 1.03710938 4.1953125 2.34375 C5.37009155 3.0867334 5.37009155 3.0867334 6.56860352 3.84472656 C7.41221436 4.3909668 8.2558252 4.93720703 9.125 5.5 C11.01081218 6.69414121 12.89758117 7.88677235 14.78515625 9.078125 C15.79078613 9.71556641 16.79641602 10.35300781 17.83251953 11.00976562 C22.79044759 14.12499836 27.79797049 17.15790562 32.80789185 20.18847656 C34.56592555 21.25207243 36.32301681 22.31720857 38.07983398 23.3828125 C43.70949549 26.79708878 49.34179264 30.20700668 54.9745636 33.6161499 C57.58409271 35.19591315 60.19296437 36.77675999 62.80172729 38.35778809 C64.66019324 39.48346031 66.51965619 40.60747273 68.37915039 41.73144531 C69.49539795 42.40788086 70.61164551 43.08431641 71.76171875 43.78125 C72.75131592 44.38001953 73.74091309 44.97878906 74.76049805 45.59570312 C77 47 77 47 78 48 C78.1698789 50.93417304 78.27427708 53.84601253 78.33569336 56.78320312 C78.36964455 58.16625137 78.36964455 58.16625137 78.40428162 59.57723999 C78.60174727 68.10586287 78.71694806 76.63599454 78.80750179 85.16635895 C78.86930604 90.89931714 78.95784984 96.62904685 79.11108398 102.36035156 C79.25854768 107.89912433 79.3368337 113.43495977 79.36721992 118.97557068 C79.39050514 121.08419035 79.43809323 123.19269123 79.51078606 125.30018616 C80.03884547 141.34387575 80.03884547 141.34387575 76.67030716 145.73226929 C73.43671576 148.63450119 69.83631752 150.47798314 65.85957909 152.16228676 C62.72886902 153.57262596 59.90555776 155.42596373 57 157.25 C52.5302193 159.92822749 48.03748905 162.56784598 43.546875 165.2109375 C30.71767679 172.73216072 30.71767679 172.73216072 18.12109375 180.6328125 C13.91366501 183.34478314 9.58714424 185.80215072 5.1875 188.1875 C4.21167969 188.71730469 3.23585938 189.24710938 2.23046875 189.79296875 C1.49441406 190.19128906 0.75835938 190.58960938 0 191 C0.05409027 189.887388 0.10818054 188.774776 0.16390991 187.62844849 C0.65708334 177.06946261 0.98699399 166.51584523 1.16321373 155.9466877 C1.25890731 150.51268861 1.40896455 145.09235131 1.69042969 139.66455078 C3.99157075 116.27479998 3.99157075 116.27479998 -3.82620239 95.34161377 C-9.90501622 89.70242278 -17.38687051 86.31429842 -25.06177711 83.39660358 C-32.50732637 80.56556741 -38.98969651 76.38300043 -45.6875 72.125 C-47.98093072 70.71766886 -50.28334138 69.32594238 -52.5859375 67.93359375 C-59.11921175 63.94146949 -65.60612109 59.8788133 -72.05541992 55.75244141 C-76.30502523 53.03789862 -80.60139359 50.46666948 -85 48 C-82.22970327 45.04146568 -79.5053717 42.91329653 -76.01953125 40.85546875 C-74.54033203 39.97568359 -74.54033203 39.97568359 -73.03125 39.078125 C-71.9690625 38.45421875 -70.906875 37.8303125 -69.8125 37.1875 C-68.117835 36.18172321 -66.42317518 35.17593755 -64.72885132 34.16958618 C-62.97474541 33.12868648 -61.21916919 32.09030158 -59.46337891 31.05224609 C-55.15554344 28.50286405 -50.86417959 25.92624924 -46.57421875 23.34692383 C-44.52521768 22.1159285 -42.47443295 20.8878972 -40.421875 19.6628418 C-35.53052483 16.74106193 -30.65590668 13.79822741 -25.82559204 10.7767334 C-24.10310443 9.70066479 -22.3764944 8.63155073 -20.6484375 7.56445312 C-18.47191233 6.21750517 -16.30347024 4.85738117 -14.14453125 3.48242188 C-13.16484375 2.87978516 -12.18515625 2.27714844 -11.17578125 1.65625 C-10.31895752 1.11806641 -9.46213379 0.57988281 -8.5793457 0.02539062 C-5.25749878 -1.29517322 -3.41639811 -0.94456866 0 0 Z " fill="#267697" transform="translate(759,242)"/>
<path d="M0 0 C2.95697428 1.14054722 5.48280933 2.68521327 8.1875 4.34375 C8.8163208 4.72684326 9.4451416 5.10993652 10.09301758 5.50463867 C11.57710232 6.40907512 13.05981311 7.31576809 14.54150391 8.22412109 C19.36735115 11.178049 24.20703156 14.10926319 29.0440979 17.04476929 C30.88741733 18.16378815 32.73026395 19.283582 34.57299805 20.40356445 C41.53574183 24.6344831 48.50864908 28.84772503 55.5 33.03125 C90.04084833 53.70515231 90.04084833 53.70515231 97.90625 58.98046875 C100.70850522 60.57174939 102.93353838 61.43196925 105.96875 62.36328125 C111.68267205 64.42569304 115.95339898 66.5248256 119.1875 71.84375 C123.35127961 83.70301319 124.03756456 100.12060468 119.1875 111.84375 C113.6789795 120.10380106 102.90404116 123.60041406 94.09130859 127.15771484 C88.13443393 129.62695284 82.86926364 133.18464601 77.5 136.71875 C75.56619861 137.93870297 73.63005613 139.15495415 71.69140625 140.3671875 C68.94845364 142.09628317 66.20887742 143.83009894 63.47607422 145.57519531 C60.96956453 147.17501609 58.45439848 148.76034424 55.9375 150.34375 C55.20442627 150.81925293 54.47135254 151.29475586 53.71606445 151.78466797 C48.69773833 154.92164622 48.69773833 154.92164622 46.11816406 154.52783203 C33.27433925 149.97694722 21.06965519 140.83379363 9.50561523 133.66333008 C5.47628388 131.17933761 1.42479962 128.95951729 -2.8125 126.84375 C-5.02219943 125.47249222 -7.20371725 124.08502636 -9.375 122.65625 C-15.30997263 118.79079809 -21.31137236 115.05432699 -27.36328125 111.375 C-29.8125 109.84375 -29.8125 109.84375 -30.8125 108.84375 C-30.95562799 106.04589372 -31.03361257 103.27190179 -31.06884766 100.47192383 C-31.08345032 99.59384064 -31.09805298 98.71575745 -31.11309814 97.81106567 C-31.23919211 89.70053765 -31.30785337 81.58901516 -31.36094093 73.47771168 C-31.39671754 68.02469834 -31.45004463 62.57315844 -31.54638672 57.12084961 C-31.63917063 51.85460109 -31.68785611 46.58965715 -31.70533371 41.32263756 C-31.71943716 39.3150519 -31.74909794 37.30751273 -31.79463577 35.30039406 C-32.13394378 19.57560972 -32.13394378 19.57560972 -28.9046936 15.34341431 C-26.56604899 13.75445696 -24.46274208 12.80026355 -21.8125 11.84375 C-20.29948374 10.96919173 -18.79957041 10.07114443 -17.3203125 9.140625 C-15.86097815 8.28891385 -14.40004468 7.43993656 -12.9375 6.59375 C-11.46049097 5.73514268 -9.98391067 4.87579731 -8.5078125 4.015625 C-7.86859863 3.6453418 -7.22938477 3.27505859 -6.57080078 2.89355469 C-1.5068625 -0.12990194 -1.5068625 -0.12990194 0 0 Z " fill="#101721" transform="translate(392.8125,623.15625)"/>
<path d="M0 0 C3.20293409 1.42483465 6.15198463 3.22667668 9.125 5.0703125 C10.35356291 5.82390184 11.58275236 6.57647052 12.8125 7.328125 C13.43542435 7.73463791 14.05834869 8.14115082 14.70014954 8.5599823 C17.14610349 10.05226329 17.14610349 10.05226329 20.11882019 11.00801086 C23.90320788 12.56985708 26.27954986 13.9748011 29.125 16.9453125 C31.45952096 23.40176008 30.73822739 30.79069218 30.61328125 37.54296875 C30.61374646 39.58125777 30.6182173 41.61954946 30.62651062 43.65782166 C30.63065808 47.92322566 30.59308643 52.18559735 30.5246582 56.45043945 C30.43943093 61.9116036 30.44772673 67.36774034 30.48592854 72.82927799 C30.50681543 77.0359121 30.48341855 81.24138793 30.44615746 85.44787407 C30.4326323 87.46082552 30.43158787 89.47390158 30.44335365 91.48686409 C30.49213701 107.17510819 30.49213701 107.17510819 27.19721985 111.44145203 C24.87618015 113.01819183 22.7626611 114.01432164 20.125 114.9453125 C19.27623291 115.47600342 18.42746582 116.00669434 17.55297852 116.5534668 C16.87678467 116.95476807 16.20059082 117.35606934 15.50390625 117.76953125 C14.72345947 118.23480225 13.9430127 118.70007324 13.13891602 119.17944336 C11.92546509 119.89886108 11.92546509 119.89886108 10.6875 120.6328125 C8.9163246 121.68953104 7.14549813 122.7468346 5.375 123.8046875 C4.49328125 124.33126953 3.6115625 124.85785156 2.703125 125.40039062 C-1.14764464 127.70793516 -4.98239526 130.04116615 -8.8125 132.3828125 C-9.52720459 132.81916016 -10.24190918 133.25550781 -10.97827148 133.70507812 C-15.19929331 136.28825189 -19.40322935 138.89728857 -23.59765625 141.5234375 C-24.55873291 142.12357666 -25.51980957 142.72371582 -26.51000977 143.34204102 C-28.39185976 144.51829749 -30.27133737 145.69835964 -32.14819336 146.88256836 C-32.99647705 147.41245361 -33.84476074 147.94233887 -34.71875 148.48828125 C-35.47349609 148.96289795 -36.22824219 149.43751465 -37.00585938 149.92651367 C-38.875 150.9453125 -38.875 150.9453125 -40.875 150.9453125 C-40.875 151.6053125 -40.875 152.2653125 -40.875 152.9453125 C-44.7293082 154.81740505 -46.76545038 155.08763965 -50.875 153.9453125 C-53.23657227 152.73706055 -53.23657227 152.73706055 -55.69140625 151.20703125 C-56.61066895 150.64000488 -57.52993164 150.07297852 -58.47705078 149.48876953 C-59.45399902 148.87630371 -60.43094727 148.26383789 -61.4375 147.6328125 C-63.50871938 146.35222517 -65.58034152 145.07228904 -67.65234375 143.79296875 C-68.69374512 143.14730957 -69.73514648 142.50165039 -70.80810547 141.83642578 C-75.34645309 139.0379828 -79.92128794 136.3020337 -84.5 133.5703125 C-90.03250781 130.26543118 -95.53513068 126.92335583 -101 123.5078125 C-105.49638363 120.71495566 -110.04345604 118.26314917 -114.8515625 116.05078125 C-117.00701097 114.87319068 -118.30006995 113.82539852 -119.875 111.9453125 C-120.24665823 108.93356688 -120.43857788 106.13290698 -120.484375 103.11328125 C-120.50147522 102.24391434 -120.51857544 101.37454742 -120.53619385 100.47883606 C-120.56452681 98.63891533 -120.58413924 96.79884276 -120.59570312 94.95874023 C-120.62480718 92.15141131 -120.71781516 89.35069999 -120.8125 86.54492188 C-121.04963952 73.60094153 -121.04963952 73.60094153 -118.18530273 69.5637207 C-115.81590688 67.95884921 -113.54266921 66.97204514 -110.875 65.9453125 C-109.17301957 64.95770073 -107.48692188 63.94229178 -105.81640625 62.90234375 C-104.02466747 61.85206556 -102.23165261 60.8039619 -100.4375 59.7578125 C-88.72110715 52.87817437 -77.11582937 45.8336079 -65.58203125 38.65234375 C-49.63266328 28.72772137 -49.63266328 28.72772137 -42.25 24.5703125 C-37.39732232 21.83712987 -32.68455823 18.96384043 -28.0078125 15.94140625 C-23.87103 13.30562588 -19.68736651 10.74974023 -15.5 8.1953125 C-14.33936035 7.48701294 -14.33936035 7.48701294 -13.15527344 6.7644043 C-11.69997114 5.87743084 -10.24240792 4.99415252 -8.78222656 4.11523438 C-7.18949323 3.13822745 -5.63259006 2.10311865 -4.0859375 1.0546875 C-1.875 -0.0546875 -1.875 -0.0546875 0 0 Z " fill="#101721" transform="translate(641.875,623.0546875)"/>
<path d="M0 0 C4.81508507 1.60502836 7.8936758 2.98191634 12.05859375 5.62890625 C13.20789668 6.35216068 14.35748145 7.0749674 15.50732422 7.79736328 C16.37874054 8.34858856 16.37874054 8.34858856 17.26776123 8.91094971 C19.96323522 10.60558141 22.68681197 12.25298265 25.41015625 13.90234375 C26.48716797 14.55589844 27.56417969 15.20945312 28.67382812 15.8828125 C29.79208984 16.56085937 30.91035156 17.23890625 32.0625 17.9375 C33.27932316 18.67573792 34.49611938 19.41402026 35.71289062 20.15234375 C38.22792433 21.67839253 40.74307102 23.20425484 43.25830078 24.72998047 C48.59677213 27.96847212 53.93379509 31.20934866 59.27087402 34.45013428 C60.99722556 35.49831546 62.72369288 36.54630566 64.45019531 37.59423828 C69.89755456 40.90077142 75.34410615 44.2086155 80.78811646 47.5206604 C83.34682081 49.07723258 85.90593872 50.63312412 88.46508789 52.18896484 C89.67981265 52.92772041 90.8943368 53.66680595 92.10864258 54.40625 C98.03152813 58.01285388 103.95260127 61.60542842 110 65 C110 65.66 110 66.32 110 67 C108.43725586 68.19824219 108.43725586 68.19824219 106.21484375 69.546875 C105.38637939 70.05452393 104.55791504 70.56217285 103.7043457 71.08520508 C102.79128662 71.6345874 101.87822754 72.18396973 100.9375 72.75 C99.99156982 73.32709717 99.04563965 73.90419434 98.07104492 74.4987793 C95.05136314 76.33918882 92.02586784 78.16978306 89 80 C87.132358 81.13597184 85.26515984 82.27267377 83.3984375 83.41015625 C80.57949729 85.12765788 77.76008041 86.84433652 74.9387207 88.55786133 C67.64816428 92.98668128 60.38408297 97.45732706 53.125 101.9375 C43.3049343 107.9951419 33.43756181 113.96886538 23.53149414 119.88476562 C17.02462371 123.772601 10.56207864 127.71905916 4.16015625 131.77734375 C2 133 2 133 0 133 C0 89.11 0 45.22 0 0 Z " fill="#111823" transform="translate(521,551)"/>
<path d="M0 0 C0 44.22 0 88.44 0 134 C-7.43977822 129.66012937 -14.82326848 125.30624084 -22.125 120.75 C-23.95939718 119.61029355 -25.79403668 118.47097703 -27.62890625 117.33203125 C-28.5327002 116.77080566 -29.43649414 116.20958008 -30.36767578 115.63134766 C-40.52676525 109.33538811 -50.74628527 103.140409 -61 97 C-69.5504938 91.8795602 -78.07090549 86.71306232 -86.56103516 81.49316406 C-89.29934939 79.81673465 -92.04615437 78.15464978 -94.79296875 76.4921875 C-96.73713146 75.30754156 -98.68114438 74.12264976 -100.625 72.9375 C-101.55691162 72.37683838 -102.48882324 71.81617676 -103.44897461 71.23852539 C-104.73106812 70.45336548 -104.73106812 70.45336548 -106.0390625 69.65234375 C-107.18689209 68.95612915 -107.18689209 68.95612915 -108.35791016 68.24584961 C-108.8997998 67.83471924 -109.44168945 67.42358887 -110 67 C-110 66.34 -110 65.68 -110 65 C-107.96255606 63.61476242 -105.93996415 62.36731288 -103.80859375 61.140625 C-103.16048233 60.75960129 -102.51237091 60.37857758 -101.84461975 59.98600769 C-100.44419079 59.16372231 -99.04179677 58.34477661 -97.63769531 57.52877808 C-94.68896521 55.81494322 -91.74967124 54.08523488 -88.80984497 52.35618591 C-87.32617319 51.48375754 -85.84201917 50.61214875 -84.35739136 49.74134827 C-78.03563989 46.03156033 -71.75632853 42.25680165 -65.5 38.4375 C-64.57203613 37.87144043 -63.64407227 37.30538086 -62.68798828 36.72216797 C-56.73971652 33.08455038 -50.82305909 29.39868988 -44.921875 25.68530273 C-38.82269166 21.86000641 -32.64436947 18.16981767 -26.45849609 14.48681641 C-22.36623446 12.04416092 -18.29840934 9.57410086 -14.27734375 7.015625 C-13.54322266 6.54898438 -12.80910156 6.08234375 -12.05273438 5.6015625 C-10.67646748 4.72217497 -9.30384783 3.83704424 -7.93554688 2.9453125 C-3.32740066 0 -3.32740066 0 0 0 Z " fill="#111822" transform="translate(512,551)"/>
<path d="M0 0 C0 43.89 0 87.78 0 133 C-6.74492907 130.75169031 -6.74492907 130.75169031 -10.1953125 128.55859375 C-11.37009155 127.82044434 -11.37009155 127.82044434 -12.56860352 127.06738281 C-13.41221436 126.52952148 -14.2558252 125.99166016 -15.125 125.4375 C-17.01093505 124.25265791 -18.89769722 123.06913164 -20.78515625 121.88671875 C-21.79078613 121.25556152 -22.79641602 120.6244043 -23.83251953 119.97412109 C-29.37931796 116.51709843 -34.9716957 113.13515803 -40.5625 109.75 C-41.74889677 109.03098403 -42.9352572 108.3119081 -44.12158203 107.59277344 C-45.92575043 106.49919406 -47.72998139 105.4057187 -49.53442383 104.31259155 C-53.79471572 101.73159571 -58.05234505 99.14625094 -62.30859375 96.55859375 C-64.11232802 95.46221102 -65.91608335 94.36586296 -67.71984863 93.26953125 C-68.90194146 92.55101854 -70.08398935 91.83243189 -71.26599121 91.11376953 C-77.15109184 87.53628567 -83.04115108 83.96785575 -88.95703125 80.44140625 C-90.32408203 79.62603394 -90.32408203 79.62603394 -91.71875 78.79418945 C-93.37722231 77.80681771 -95.03723413 76.82202433 -96.69921875 75.84057617 C-101.30637557 73.09901476 -105.67837882 70.17413656 -110 67 C-107.2574867 64.07541605 -104.57584245 61.95701897 -101.125 59.92578125 C-100.15433594 59.34957031 -99.18367187 58.77335938 -98.18359375 58.1796875 C-96.60771484 57.25542969 -96.60771484 57.25542969 -95 56.3125 C-93.31273478 55.31198133 -91.62548458 54.31143665 -89.93896484 53.30966187 C-88.76129829 52.61028897 -87.58323139 51.91158982 -86.40478516 51.21353149 C-80.49387133 47.70979121 -74.62205118 44.14292955 -68.75384521 40.56826782 C-59.14894398 34.71791864 -49.52388267 28.90262321 -39.875 23.125 C-31.17168828 17.91272359 -22.48980875 12.66754642 -13.83984375 7.3671875 C-13.21190918 6.98272461 -12.58397461 6.59826172 -11.93701172 6.20214844 C-10.55113698 5.34204669 -9.17340829 4.46876384 -7.80126953 3.58691406 C-7.08438965 3.12768555 -6.36750977 2.66845703 -5.62890625 2.1953125 C-4.98123291 1.77523926 -4.33355957 1.35516602 -3.66625977 0.92236328 C-2 0 -2 0 0 0 Z " fill="#111923" transform="translate(636,475)"/>
<path d="M0 0 C4.20903757 1.68361503 7.85483379 3.58961552 11.6875 5.9375 C12.67133667 6.53401367 12.67133667 6.53401367 13.67504883 7.14257812 C15.78596127 8.42417693 17.89332211 9.71145415 20 11 C21.3333164 11.81382982 22.66664967 12.62763201 24 13.44140625 C26.13337362 14.74434762 28.26618368 16.04818876 30.39794922 17.35375977 C35.13616194 20.2548171 39.88142602 23.14401131 44.6328125 26.0234375 C57.09618658 33.57689294 69.54710985 41.14700083 81.91796875 48.8515625 C85.57094008 51.12397945 89.24316004 53.36190437 92.92578125 55.5859375 C93.89974854 56.17793945 94.87371582 56.76994141 95.87719727 57.37988281 C97.75238995 58.51899026 99.63162877 59.651471 101.51538086 60.77636719 C102.35077393 61.28586914 103.18616699 61.79537109 104.046875 62.3203125 C104.78776367 62.76648926 105.52865234 63.21266602 106.29199219 63.67236328 C108 65 108 65 109 68 C107.69518677 68.76908691 107.69518677 68.76908691 106.36401367 69.55371094 C85.57105102 81.78327628 85.57105102 81.78327628 65.08251953 94.51196289 C55.36171035 100.71721085 45.46849081 106.64282994 35.59887695 112.60710144 C31.07297236 115.34445533 26.56025645 118.10287198 22.05078125 120.8671875 C20.11779607 122.04971412 18.18455225 123.23181649 16.25119019 124.41372681 C15.00540525 125.17650893 13.76054315 125.94080038 12.51663208 126.70663452 C10.79217654 127.76803727 9.06414352 128.82362115 7.3359375 129.87890625 C6.35157715 130.4829126 5.3672168 131.08691895 4.35302734 131.70922852 C2 133 2 133 0 133 C0 89.11 0 45.22 0 0 Z " fill="#111822" transform="translate(397,475)"/>
<path d="M0 0 C3.465 1.98 3.465 1.98 7 4 C7 4.66 7 5.32 7 6 C7.55945313 6.1134375 8.11890625 6.226875 8.6953125 6.34375 C16.65742183 8.61092689 23.85801632 14.12360125 30.74682617 18.61791992 C34.33941581 20.95532023 37.96655655 23.18179216 41.6875 25.3125 C47.99213804 28.93214394 54.11377473 32.82476666 60.23901367 36.73754883 C63.72869625 38.96109879 67.21458658 41.15142805 70.82421875 43.17578125 C72.39623047 44.07876953 72.39623047 44.07876953 74 45 C74.71613464 45.36277542 75.43226929 45.72555084 76.17010498 46.09931946 C79.02222238 49.06176483 78.52460044 52.34582083 78.45410156 56.23510742 C78.45468567 57.07435257 78.45526978 57.91359772 78.45587158 58.77827454 C78.4530831 61.55442558 78.42195563 64.32950512 78.390625 67.10546875 C78.38316531 69.02931634 78.3774711 70.95317152 78.37347412 72.87702942 C78.35819635 77.94234165 78.31889603 83.00719559 78.2746582 88.07232666 C78.23375173 93.240212 78.21547299 98.40817133 78.1953125 103.57617188 C78.15240389 113.71764935 78.0841266 123.85878658 78 134 C67.95742612 129.03707617 58.27916204 123.26330058 48.77734375 117.34375 C43.87714561 114.29147917 38.93480027 111.30835215 34 108.3125 C26.02533815 103.46385293 18.06486202 98.59294553 10.125 93.6875 C8.76955078 92.85182495 8.76955078 92.85182495 7.38671875 91.99926758 C6.56042969 91.48775146 5.73414063 90.97623535 4.8828125 90.44921875 C4.15465332 89.99893311 3.42649414 89.54864746 2.67626953 89.0847168 C1 88 1 88 0 87 C-0.09514592 84.29161914 -0.12554932 81.60881487 -0.11352539 78.90014648 C-0.11367142 78.05143982 -0.11381744 77.20273315 -0.1139679 76.32830811 C-0.11326848 73.50921109 -0.10547478 70.69017929 -0.09765625 67.87109375 C-0.09579217 65.92196183 -0.09436822 63.97282945 -0.09336853 62.0236969 C-0.08954255 56.88293168 -0.07971159 51.74219453 -0.06866455 46.60144043 C-0.05845215 41.35994852 -0.05387128 36.1184521 -0.04882812 30.87695312 C-0.03808939 20.58462306 -0.02101201 10.29231386 0 0 Z " fill="#276B93" transform="translate(671,299)"/>
<path d="M0 0 C0.66 0 1.32 0 2 0 C2 28.71 2 57.42 2 87 C-5.92 91.455 -5.92 91.455 -14 96 C-16.99632731 97.79302136 -19.97558665 99.5913288 -22.9375 101.4375 C-28.68938493 104.98832283 -34.47160489 108.47264408 -40.3125 111.875 C-47.92370322 116.31095517 -55.4104215 120.93709998 -62.87036133 125.62255859 C-64.131427 126.41073975 -64.131427 126.41073975 -65.41796875 127.21484375 C-66.15813232 127.68011475 -66.8982959 128.14538574 -67.66088867 128.62475586 C-70.37753052 130.2219632 -73.17693879 131.60118643 -76 133 C-76.51182834 121.88332272 -76.90160534 110.76948 -77.13986778 99.64338398 C-77.25429713 94.4750405 -77.40908777 89.31479901 -77.65966797 84.15112305 C-79.23218716 50.88300671 -79.23218716 50.88300671 -73.96905518 42.9317627 C-68.91784333 38.25247081 -63.17621294 35.90182154 -56.66766357 33.87765503 C-53.09604935 32.70260237 -50.37220595 31.0265697 -47.2265625 28.9765625 C-46.29166992 28.41791504 -45.35677734 27.85926758 -44.39355469 27.28369141 C-43.47993164 26.73632324 -42.56630859 26.18895508 -41.625 25.625 C-40.60825195 25.0170459 -39.59150391 24.4090918 -38.54394531 23.78271484 C-33.07598563 20.49908151 -27.64454814 17.16521554 -22.2578125 13.75 C-21.16645996 13.0595459 -20.07510742 12.3690918 -18.95068359 11.65771484 C-16.86308568 10.33190704 -14.77984366 8.99920798 -12.70166016 7.65869141 C-11.76370605 7.06233887 -10.82575195 6.46598633 -9.859375 5.8515625 C-9.03920898 5.32385254 -8.21904297 4.79614258 -7.37402344 4.25244141 C-4.89281332 2.94345252 -2.76330915 2.40485121 0 2 C0 1.34 0 0.68 0 0 Z " fill="#276C94" transform="translate(360,300)"/>
<path d="M0 0 C0 30.03 0 60.06 0 91 C-4.04137819 88.97931091 -7.58035847 87.06886156 -11.3125 84.625 C-14.48677342 82.54677614 -17.68875814 80.60104198 -21.015625 78.78125 C-27.27108207 75.33863198 -33.34405855 71.59361314 -39.4375 67.875 C-40.68017758 67.1182775 -41.92293544 66.36168682 -43.16577148 65.60522461 C-46.21809302 63.74679289 -49.26913081 61.88626626 -52.31970215 60.02496338 C-54.78793621 58.5193675 -57.25732874 57.01567437 -59.7265625 55.51171875 C-61.33865808 54.52883674 -62.95064687 53.54577956 -64.5625 52.5625 C-65.28687256 52.12083496 -66.01124512 51.67916992 -66.75756836 51.22412109 C-69.53732452 49.52506016 -72.28886947 47.80742035 -75 46 C-73.59551785 41.78655355 -70.62648909 40.75499224 -66.9375 38.6875 C-65.3827461 37.79438642 -63.82806268 36.90115013 -62.2734375 36.0078125 C-61.0045166 35.28513184 -61.0045166 35.28513184 -59.70996094 34.54785156 C-54.8101705 31.74923252 -49.93736899 28.90423541 -45.0625 26.0625 C-44.04414063 25.46993408 -43.02578125 24.87736816 -41.9765625 24.2668457 C-34.86095879 20.11626596 -27.80259536 15.88165665 -20.79516602 11.55102539 C-8.57004851 4 -8.57004851 4 -6 4 C-6 3.34 -6 2.68 -6 2 C-1.125 0 -1.125 0 0 0 Z " fill="#39347E" transform="translate(362,641)"/>
<path d="M0 0 C3.20148334 1.28059333 5.80027954 2.35612027 8.6875 4.0625 C10.43417415 5.0841396 12.19011204 6.09505602 14 7 C14 7.66 14 8.32 14 9 C14.87527344 9.26554688 15.75054688 9.53109375 16.65234375 9.8046875 C24.29095007 12.53212453 31.10818747 17.4390265 37.9765625 21.6953125 C42.1351128 24.26517548 46.31601797 26.7908406 50.53178406 29.26577759 C53.00676706 30.71881159 55.47524543 32.18272007 57.94360352 33.64697266 C59.20994044 34.39436785 60.47925513 35.13673645 61.7512207 35.87451172 C63.61981933 36.96017532 65.47658145 38.06392941 67.33203125 39.171875 C68.42233643 39.8122168 69.5126416 40.45255859 70.63598633 41.11230469 C71.41611084 41.73524414 72.19623535 42.35818359 73 43 C73 44.32 73 45.64 73 47 C71.12890625 48.74609375 71.12890625 48.74609375 68.5625 50.4375 C67.64210938 51.0459375 66.72171875 51.654375 65.7734375 52.28125 C62.71829886 54.17457535 59.62193697 55.93509694 56.45703125 57.63671875 C52.39279706 59.89175489 48.47289206 62.37927905 44.5234375 64.828125 C40.24337467 67.47642889 35.921255 70.05347131 31.60058594 72.63476562 C27.41898386 75.13724377 23.26668335 77.68196324 19.125 80.25 C12.87822093 84.10717477 6.56622562 87.71688719 0 91 C0 60.97 0 30.94 0 0 Z " fill="#3A3680" transform="translate(671,641)"/>
<path d="M0 0 C0.33 0 0.66 0 1 0 C1.19411497 4.94340999 1.37251662 9.88706182 1.53710938 14.83154297 C1.59508964 16.50942753 1.65717485 18.18717593 1.72363281 19.86474609 C2.07804496 28.88077642 2.34864029 37.19708106 0 46 C0.66 46.33 1.32 46.66 2 47 C1.75601219 47.7629538 1.75601219 47.7629538 1.50709534 48.5413208 C0.83256523 51.81181656 0.86908223 55.01582628 0.88647461 58.33886719 C0.88632858 59.07096909 0.88618256 59.80307098 0.8860321 60.55735779 C0.88672724 62.97056062 0.89450092 65.3836857 0.90234375 67.796875 C0.90420935 69.47267617 0.90563258 71.14847788 0.90663147 72.82427979 C0.91044548 77.23013826 0.92026624 81.63596366 0.93133545 86.04180908 C0.94157357 90.53958692 0.94613424 95.03737011 0.95117188 99.53515625 C0.9618895 108.35678535 0.97895253 117.17838992 1 126 C-2 127 -2 127 -4.16625977 126.00292969 C-4.99955811 125.48118164 -5.83285645 124.95943359 -6.69140625 124.421875 C-7.62678223 123.8436499 -8.5621582 123.2654248 -9.52587891 122.66967773 C-10.52796387 122.03618408 -11.53004883 121.40269043 -12.5625 120.75 C-14.11590088 119.78525757 -14.11590088 119.78525757 -15.70068359 118.80102539 C-17.81305921 117.48912724 -19.92309475 116.17345359 -22.03076172 114.85400391 C-26.0424609 112.34908337 -30.08289519 109.8929024 -34.125 107.4375 C-39.80634647 103.97104686 -45.46706441 100.47228716 -51.12060547 96.96069336 C-58.56979242 92.33416855 -66.02046598 87.73526805 -73.625 83.3671875 C-76.10192618 81.94132539 -78.55318382 80.47682834 -81 79 C-78 79 -78 79 -76.125 80.0625 C-73.23440735 81.33776146 -72.03551538 80.89205257 -69 80 C-66.59208064 78.64554536 -64.30737157 77.25770698 -62 75.75 C-60.55508573 74.82750095 -59.10975274 73.90565752 -57.6640625 72.984375 C-56.90125977 72.49517578 -56.13845703 72.00597656 -55.35253906 71.50195312 C-42.98510989 63.60610171 -30.42696318 56.00407798 -17.86334229 48.42553711 C-16.49880968 47.60180629 -15.13515713 46.77661581 -13.7723999 45.94995117 C-11.85739098 44.78905572 -9.93898472 43.6339965 -8.01953125 42.48046875 C-6.90682861 41.80910889 -5.79412598 41.13774902 -4.64770508 40.44604492 C-2 39 -2 39 0 39 C0 26.13 0 13.26 0 0 Z " fill="#493287" transform="translate(512,696)"/>
<path d="M0 0 C0.33 0 0.66 0 1 0 C1 80.52 1 161.04 1 244 C-3.62179686 242.45940105 -6.94042775 241.07288753 -11.0625 238.6875 C-11.64757324 238.34920166 -12.23264648 238.01090332 -12.83544922 237.66235352 C-19.4212536 233.81740843 -25.88576433 229.77113622 -32.35473633 225.73388672 C-38.1710313 222.1082135 -44.02959534 218.60919469 -50.015625 215.26953125 C-52 214 -52 214 -53 212 C-54.56070178 211.34103703 -56.12371996 210.6872372 -57.6953125 210.0546875 C-61.71041157 208.21726928 -65.44270891 205.88208005 -69.23046875 203.62109375 C-71.45684727 202.31792438 -73.67582819 201.11493683 -76 200 C-75.505 199.01 -75.505 199.01 -75 198 C-74.21753906 198.28101563 -73.43507813 198.56203125 -72.62890625 198.8515625 C-67.05514 199.07955294 -63.55427156 196.2832217 -58.9375 193.375 C-57.96723877 192.78251465 -56.99697754 192.1900293 -55.99731445 191.57958984 C-52.98758332 189.73633987 -49.99295054 187.87034616 -47 186 C-44.45868224 184.42768726 -41.91588596 182.85792934 -39.3695612 181.29373837 C-37.67152328 180.23724457 -35.98370752 179.16398386 -34.31079006 178.06814671 C-29.52888023 174.97662345 -24.87330366 172.45379445 -19.58106995 170.33836365 C-11.46223052 166.83132149 -3.05831283 163.13133971 0.40782547 154.49031448 C2.77584973 144.79235311 2.08832561 134.46383061 1.73677754 124.57429433 C1.60755248 120.18652137 1.62190194 115.79911576 1.620224 111.40977478 C1.59564047 103.11959429 1.444266 94.83690878 1.24585861 86.54926437 C1.02606346 77.10587363 0.94980229 67.66296837 0.88484776 58.21744168 C0.74819553 38.80794507 0.43372033 19.40501925 0 0 Z " fill="#353F81" transform="translate(749,433)"/>
<path d="M0 0 C0.33 0 0.66 0 1 0 C1.00410889 1.19077148 1.00821777 2.38154297 1.01245117 3.60839844 C1.03423471 8.02941076 1.08851595 12.44953208 1.15258789 16.87011719 C1.17577476 18.78279069 1.19016523 20.69559199 1.19555664 22.60839844 C1.20484137 25.35953474 1.24581927 28.10865912 1.29296875 30.859375 C1.2890361 31.71368103 1.28510345 32.56798706 1.28105164 33.44818115 C1.38421396 38.43904731 1.38421396 38.43904731 4.2487793 42.42114258 C6.71780601 43.83805586 9.14840294 45.19629393 11.7265625 46.40234375 C16.78981628 48.85722631 21.57506469 51.631782 26.375 54.5625 C28.12623921 55.62249972 29.87754319 56.68239243 31.62890625 57.7421875 C32.51594238 58.28069336 33.40297852 58.81919922 34.31689453 59.37402344 C38.63968455 61.99365779 42.97660285 64.58964009 47.3125 67.1875 C48.96359964 68.17828881 50.61464238 69.16917245 52.265625 70.16015625 C55.3373427 72.00331204 58.41025802 73.84444258 61.484375 75.68359375 C62.17619873 76.09778564 62.86802246 76.51197754 63.58081055 76.9387207 C64.86055214 77.70479984 66.14063847 78.47030351 67.42114258 79.23510742 C69.98846032 80.77256189 72.50925989 82.3395066 75 84 C74.30777344 84.40089844 73.61554688 84.80179688 72.90234375 85.21484375 C66.0728636 89.18296068 59.28271302 93.21179609 52.515625 97.28515625 C49.03006517 99.38306565 45.53916691 101.47191083 42.046875 103.55859375 C31.34047005 109.96044562 20.65779256 116.38727497 10.109375 123.046875 C9.08328125 123.69140625 8.0571875 124.3359375 7 125 C5.61554687 125.87398437 5.61554687 125.87398437 4.203125 126.765625 C2 128 2 128 0 128 C0 85.76 0 43.52 0 0 Z " fill="#4A3187" transform="translate(521,695)"/>
<path d="M0 0 C2.54745813 2.54745813 2.23554071 4.17002202 2.24884033 7.64305115 C2.2380545 8.82448448 2.2380545 8.82448448 2.22705078 10.02978516 C2.22734283 10.85913071 2.22763489 11.68847626 2.22793579 12.54295349 C2.22653939 15.29176192 2.21096368 18.04030127 2.1953125 20.7890625 C2.19158347 22.69192354 2.18873598 24.5947865 2.18673706 26.49765015 C2.17909192 31.51185383 2.15943589 36.52594209 2.1373291 41.5401001 C2.11688962 46.65432168 2.10773941 51.76856187 2.09765625 56.8828125 C2.07619081 66.92192578 2.04204427 76.9609533 2 87 C-2.48550099 86.22549957 -5.82425573 84.58560917 -9.6796875 82.23828125 C-10.32090546 81.85570663 -10.96212341 81.47313202 -11.62277222 81.07896423 C-13.71113711 79.83047873 -15.79306042 78.57166563 -17.875 77.3125 C-19.31899189 76.44636626 -20.76333064 75.58081054 -22.20800781 74.71582031 C-31.68311633 69.0344937 -41.13127542 63.306861 -50.55053711 57.53344727 C-56.36192164 53.97376728 -62.21628174 50.52785588 -68.18359375 47.234375 C-68.78300781 46.82703125 -69.38242187 46.4196875 -70 46 C-70 45.34 -70 44.68 -70 44 C-70.66 43.67 -71.32 43.34 -72 43 C-71.52433594 42.74347656 -71.04867188 42.48695313 -70.55859375 42.22265625 C-58.66688966 35.71835401 -47.20965804 28.52103398 -35.78344727 21.2409668 C-30.80692243 18.08837354 -25.77229365 15.17243062 -20.5546875 12.43359375 C-16.47984851 10.14694863 -12.66483695 7.4885025 -8.82421875 4.83203125 C-5.96996699 2.98051801 -3.06834124 1.46392056 0 0 Z " fill="#28AFBE" transform="translate(511,207)"/>
<path d="M0 0 C0.33 0 0.66 0 1 0 C1 52.47 1 104.94 1 159 C2.98 159.66 4.96 160.32 7 161 C8.88920163 162.03397987 10.74567583 163.12936661 12.5703125 164.2734375 C14.14752075 165.25461548 14.14752075 165.25461548 15.7565918 166.25561523 C17.42395386 167.30471069 17.42395386 167.30471069 19.125 168.375 C20.87742702 169.46761591 22.63132641 170.55783957 24.38536072 171.64787292 C25.56404761 172.38045409 26.74232102 173.11370096 27.92018127 173.84761047 C35.47739747 178.55298707 43.12622853 183.10326895 50.77197266 187.66259766 C52.97464523 188.98478047 55.16646294 190.32330086 57.35546875 191.66796875 C58.37797729 192.29264038 58.37797729 192.29264038 59.42114258 192.92993164 C60.67004264 193.69381591 61.91626153 194.46211252 63.15893555 195.23608398 C66.66630579 197.37298083 70.06053291 198.84553381 74 200 C72.59790954 202.80418092 70.77102618 203.31830314 68 204.75 C63.52630956 207.1255643 59.35257433 209.71016231 55.17578125 212.56640625 C52.30671186 214.45679847 49.32485077 216.08513321 46.30859375 217.7265625 C40.20346034 221.09419954 34.30041606 224.79289846 28.4375 228.5625 C24.45548535 231.11277905 20.42835609 233.48636157 16.26953125 235.734375 C12.82614214 237.65461265 9.49913781 239.76165443 6.1640625 241.86328125 C4 243 4 243 1 243 C0.80783933 232.50036561 0.64676334 222.00035403 0.5 211.5 C0.48812275 210.65115108 0.4762455 209.80230217 0.46400833 208.92773056 C-0.15040151 164.22461295 -0.08370311 119.51879825 -0.0625 74.8125 C-0.06207577 73.89191677 -0.06165154 72.97133354 -0.06121445 72.02285385 C-0.04996668 48.01522621 -0.02958213 24.00761194 0 0 Z " fill="#363C7F" transform="translate(283,433)"/>
<path d="M0 0 C3.31012633 0.82753158 5.20289427 1.5314904 8.0546875 3.1875 C8.82748047 3.63456299 9.60027344 4.08162598 10.39648438 4.54223633 C11.21439453 5.02329834 12.03230469 5.50436035 12.875 6 C13.72126953 6.49330811 14.56753906 6.98661621 15.43945312 7.49487305 C21.68134765 11.15897836 27.7645071 15.02316582 33.8203125 18.984375 C38.41887616 21.89943501 43.17208076 24.48751142 48 27 C48 27.66 48 28.32 48 29 C48.84256348 29.16326782 48.84256348 29.16326782 49.70214844 29.32983398 C52.37006751 30.1079298 54.39238283 31.27741262 56.765625 32.72265625 C57.65507813 33.26083984 58.54453125 33.79902344 59.4609375 34.35351562 C60.38132812 34.91748047 61.30171875 35.48144531 62.25 36.0625 C63.18585938 36.63033203 64.12171875 37.19816406 65.0859375 37.78320312 C67.39347472 39.18420787 69.69798943 40.58993926 72 42 C70.71924573 45.84226281 69.44356639 46.19865108 65.98046875 48.1953125 C64.90877441 48.82050781 63.83708008 49.44570313 62.73291016 50.08984375 C62.15599426 50.42097168 61.57907837 50.75209961 60.98468018 51.09326172 C58.54294638 52.49503004 56.11274968 53.91624097 53.6819458 55.33685303 C52.40608071 56.08245221 51.12966261 56.82710582 49.85272217 57.57086182 C42.89242933 61.62999775 36.00615082 65.80855944 29.125 70 C27.44506958 71.0211792 27.44506958 71.0211792 25.73120117 72.06298828 C24.64685791 72.72282715 23.56251465 73.38266602 22.4453125 74.0625 C21.38989258 74.701875 20.33447266 75.34125 19.24707031 76 C16.95404737 77.41236421 14.68847909 78.8435809 12.43261719 80.3125 C11.55293777 80.87698853 11.55293777 80.87698853 10.65548706 81.45288086 C9.02237864 82.50290335 7.39739956 83.56553829 5.77294922 84.62890625 C3 86 3 86 -1 85 C-0.67 56.95 -0.34 28.9 0 0 Z " fill="#29B0BF" transform="translate(521,208)"/>
<path d="M0 0 C0.66 0 1.32 0 2 0 C2.51046875 1.17755859 2.51046875 1.17755859 3.03125 2.37890625 C8.05320028 13.26425062 13.78827324 18.82155554 25 23 C25 23.66 25 24.32 25 25 C24.21496094 25.3403125 23.42992187 25.680625 22.62109375 26.03125 C11.73574938 31.05320028 6.17844446 36.78827324 2 48 C1.34 48 0.68 48 0 48 C-0.3403125 47.21496094 -0.680625 46.42992187 -1.03125 45.62109375 C-6.05320028 34.73574938 -11.78827324 29.17844446 -23 25 C-23 24.34 -23 23.68 -23 23 C-22.21496094 22.6596875 -21.42992187 22.319375 -20.62109375 21.96875 C-9.73574938 16.94679972 -4.17844446 11.21172676 0 0 Z " fill="#838589" transform="translate(967,944)"/>
<path d="M0 0 C0.33 0 0.66 0 1 0 C1 52.47 1 104.94 1 159 C1.99 159.33 2.98 159.66 4 160 C3.34 162.31 2.68 164.62 2 167 C1.67 167 1.34 167 1 167 C0.24773407 162.31403387 -0.12398115 157.82799968 -0.12025452 153.08399963 C-0.12110894 152.42465028 -0.12196337 151.76530093 -0.12284368 151.0859713 C-0.12447894 148.89655984 -0.11900943 146.70722656 -0.11352539 144.51782227 C-0.11324307 142.94045514 -0.11340213 141.36308788 -0.1139679 139.78572083 C-0.11425412 135.51766483 -0.10838566 131.24963709 -0.10139394 126.98158765 C-0.09513128 122.51596041 -0.0945543 118.05033249 -0.09336853 113.58470154 C-0.0902638 105.13467863 -0.08206198 96.6846687 -0.07201904 88.23465151 C-0.06083125 78.61194127 -0.05534074 68.9892304 -0.05032361 59.36651528 C-0.03987865 39.57766962 -0.02229583 19.78883563 0 0 Z " fill="#326991" transform="translate(283,433)"/>
<path d="M0 0 C1.98 0.99 1.98 0.99 4 2 C3.67 2.99 3.34 3.98 3 5 C2.34 5 1.68 5 1 5 C1.33 47.24 1.66 89.48 2 133 C1.34 133 0.68 133 0 133 C0 89.11 0 45.22 0 0 Z " fill="#101D2D" transform="translate(397,475)"/>
<path d="M0 0 C6.3 -0.48461538 6.3 -0.48461538 9.4375 1.6875 C11.28968623 4.42873562 11.59716883 5.75822636 11 9 C7.52957297 11.31361802 6.08165827 11.51020728 2 11 C0.0625 9.4375 0.0625 9.4375 -1 7 C-0.6875 3.25 -0.6875 3.25 0 0 Z " fill="#040B19" transform="translate(824,14)"/>
<path d="M0 0 C0.66 0 1.32 0 2 0 C1.67 0.99 1.34 1.98 1 3 C0.90099675 4.34514596 0.8539952 5.69452959 0.84178162 7.04325867 C0.8319928 7.8635556 0.82220398 8.68385254 0.81211853 9.52900696 C0.80636307 10.42524277 0.8006076 11.32147858 0.79467773 12.24487305 C0.78477814 13.19140747 0.77487854 14.13794189 0.76467896 15.11315918 C0.73305761 18.24598681 0.70830394 21.37882961 0.68359375 24.51171875 C0.66302478 26.68219907 0.64202832 28.85267537 0.62062073 31.02314758 C0.56539423 36.73923496 0.51598745 42.45535853 0.46777344 48.17150879 C0.41756267 54.00304387 0.36187438 59.83452633 0.30664062 65.66601562 C0.19905196 77.11063214 0.09760852 88.55529432 0 100 C-0.33 100 -0.66 100 -1 100 C-1.0231211 87.10927745 -1.04091389 74.2185598 -1.05181217 61.32782078 C-1.05704151 55.34280734 -1.06414008 49.35780804 -1.07543945 43.37280273 C-1.08626653 37.60216571 -1.09227645 31.83154232 -1.09487724 26.06089592 C-1.09673182 23.85397057 -1.10035304 21.647046 -1.10573006 19.44012642 C-1.1129381 16.36053959 -1.11399104 13.28100986 -1.11352539 10.20141602 C-1.11712067 9.27928818 -1.12071594 8.35716034 -1.12442017 7.40708923 C-1.11405216 1.11405216 -1.11405216 1.11405216 0 0 Z " fill="#2D2C62" transform="translate(196,637)"/>
<path d="M0 0 C0.66 0.33 1.32 0.66 2 1 C0.25707481 2.4874965 -1.49461754 3.96472492 -3.25 5.4375 C-4.22453125 6.26121094 -5.1990625 7.08492188 -6.203125 7.93359375 C-8.73786427 9.80632709 -10.02281636 10.42312923 -13 11 C-13.598125 11.66 -14.19625 12.32 -14.8125 13 C-17.73023501 15.66764344 -20.13722032 15.7028631 -24 16 C-19.86546275 12.51401762 -15.47052934 9.69593513 -10.875 6.875 C-9.45551929 5.99773534 -8.03624059 5.12014371 -6.6171875 4.2421875 C-5.99440918 3.8591748 -5.37163086 3.47616211 -4.72998047 3.08154297 C-3.13439182 2.08401859 -1.56570511 1.04380341 0 0 Z " fill="#30BCC6" transform="translate(382,275)"/>
<path d="M0 0 C0.66 0 1.32 0 2 0 C2.13277344 0.56589844 2.26554688 1.13179687 2.40234375 1.71484375 C2.57894531 2.44832031 2.75554688 3.18179687 2.9375 3.9375 C3.11152344 4.66839844 3.28554688 5.39929688 3.46484375 6.15234375 C3.83887569 7.99969898 3.83887569 7.99969898 5 9 C6.51469448 9.23192865 8.03754562 9.41215238 9.5625 9.5625 C10.38878906 9.64628906 11.21507812 9.73007812 12.06640625 9.81640625 C12.70449219 9.87699219 13.34257813 9.93757813 14 10 C14 10.99 14 11.98 14 13 C10.92355285 13.36193496 8.06750377 13.48731247 5 13 C1.9375 10.4375 1.9375 10.4375 0 7 C-0.3125 3.125 -0.3125 3.125 0 0 Z " fill="#1D3540" transform="translate(821,15)"/>
<path d="M0 0 C0.66 0.33 1.32 0.66 2 1 C-1.33447531 7.22435392 -9.68293739 9.05628843 -16 11 C-13.27587303 7.91460888 -9.90811219 5.88811092 -6.4375 3.75 C-5.84775391 3.37359375 -5.25800781 2.9971875 -4.65039062 2.609375 C-3.13894996 1.6739669 -1.57228969 0.82906354 0 0 Z " fill="#2CB3BC" transform="translate(400,264)"/>
<path d="M0 0 C2.64 0.66 5.28 1.32 8 2 C7.67 2.99 7.34 3.98 7 5 C6.01 4.67 5.02 4.34 4 4 C1.64214682 4.89335797 1.64214682 4.89335797 0.875 8.0625 C0.58625 9.031875 0.2975 10.00125 0 11 C-0.33 10.34 -0.66 9.68 -1 9 C-1.99 8.67 -2.98 8.34 -4 8 C-3.34 7.67 -2.68 7.34 -2 7 C-1.26924352 4.6859378 -0.59861742 2.35171131 0 0 Z " fill="#11242F" transform="translate(836,16)"/>
<path d="M0 0 C0.66 0.33 1.32 0.66 2 1 C0.92130607 1.96355244 -0.16318743 2.92061417 -1.25 3.875 C-1.85328125 4.40867187 -2.4565625 4.94234375 -3.078125 5.4921875 C-5 7 -5 7 -7.15625 8.0625 C-9.52803862 9.26849421 -10.03188349 10.57970874 -11 13 C-11.5625 10.375 -11.5625 10.375 -11 7 C-7.69427674 4.09497047 -3.92516419 1.9625821 0 0 Z " fill="#37B3C4" transform="translate(399,455)"/>
<path d="M0 0 C0.66 0.33 1.32 0.66 2 1 C-0.38494073 3.80581263 -3.17759273 5.27615602 -6.35546875 7.015625 C-8.19367979 8.11593185 -9.53037934 9.45303088 -11 11 C-11.66 11 -12.32 11 -13 11 C-13 10.01 -13 9.02 -13 8 C-10.89407249 6.42203742 -8.87808391 5.08093564 -6.625 3.75 C-6.02171875 3.37359375 -5.4184375 2.9971875 -4.796875 2.609375 C-3.23911092 1.66779316 -1.62217532 0.82568307 0 0 Z " fill="#37B9C3" transform="translate(496,396)"/>
<path d="M0 0 C0.66 0.33 1.32 0.66 2 1 C-3.445 5.455 -3.445 5.455 -9 10 C-9.33 8.68 -9.66 7.36 -10 6 C-8.3811004 4.96951963 -6.75467511 3.95085322 -5.125 2.9375 C-4.22007812 2.36902344 -3.31515625 1.80054688 -2.3828125 1.21484375 C-1.20332031 0.61349609 -1.20332031 0.61349609 0 0 Z " fill="#35C4CB" transform="translate(382,275)"/>
<path d="M0 0 C2 2 2 2 2.0625 5.25 C2.041875 6.4875 2.02125 7.725 2 9 C2.29185063 11.0064731 2.61169599 13.00994193 3 15 C2.01 15.66 1.02 16.32 0 17 C0 11.39 0 5.78 0 0 Z " fill="#2AB4BF" transform="translate(433,229)"/>
<path d="M0 0 C0.66 0.33 1.32 0.66 2 1 C0.74057614 2.19959375 -0.53295286 3.38439443 -1.8125 4.5625 C-2.87404297 5.55443359 -2.87404297 5.55443359 -3.95703125 6.56640625 C-4.63121094 7.03949219 -5.30539062 7.51257813 -6 8 C-6.99 7.67 -7.98 7.34 -9 7 C-6.25604436 4.05278838 -3.61662784 1.80831392 0 0 Z " fill="#35B0BC" transform="translate(450,424)"/>
<path d="M0 0 C0.66 0.33 1.32 0.66 2 1 C-0.475 4.465 -0.475 4.465 -3 8 C-3.99 7.34 -4.98 6.68 -6 6 C-5 3 -5 3 -2.5625 1.25 C-1.716875 0.8375 -0.87125 0.425 0 0 Z " fill="#2BC0C7" transform="translate(430,246)"/>
<path d="M0 0 C1.98 0.99 1.98 0.99 4 2 C3.67 2.99 3.34 3.98 3 5 C2.34 5 1.68 5 1 5 C1 6.98 1 8.96 1 11 C0.67 11 0.34 11 0 11 C0 7.37 0 3.74 0 0 Z " fill="#152839" transform="translate(397,475)"/>
<path d="M0 0 C0.99 0.66 1.98 1.32 3 2 C1.71475739 2.86380259 0.42157581 3.71580369 -0.875 4.5625 C-1.59429687 5.03816406 -2.31359375 5.51382812 -3.0546875 6.00390625 C-3.69664062 6.33261719 -4.33859375 6.66132813 -5 7 C-5.66 6.67 -6.32 6.34 -7 6 C-5.6875 4.5 -5.6875 4.5 -4 3 C-3.01 3 -2.02 3 -1 3 C-0.67 2.01 -0.34 1.02 0 0 Z " fill="#36B9C5" transform="translate(496,404)"/>
<path d="M0 0 C0.66 0.33 1.32 0.66 2 1 C-0.64 2.98 -3.28 4.96 -6 7 C-6.66 6.34 -7.32 5.68 -8 5 C-6.71475739 4.13619741 -5.42157581 3.28419631 -4.125 2.4375 C-3.04605469 1.72400391 -3.04605469 1.72400391 -1.9453125 0.99609375 C-1.30335938 0.66738281 -0.66140625 0.33867187 0 0 Z " fill="#2FC6CE" transform="translate(422,251)"/>
<path d="M0 0 C0.66 0.66 1.32 1.32 2 2 C0.71475739 2.86380259 -0.57842419 3.71580369 -1.875 4.5625 C-2.59429687 5.03816406 -3.31359375 5.51382812 -4.0546875 6.00390625 C-4.69664062 6.33261719 -5.33859375 6.66132813 -6 7 C-6.66 6.67 -7.32 6.34 -8 6 C-6.3584951 2.7169902 -3.17097149 1.72962081 0 0 Z " fill="#2BBCC6" transform="translate(423,259)"/>
<path d="M0 0 C0.99 0.33 1.98 0.66 3 1 C0.87219421 3.34058637 -1.11562221 4.70700306 -4 6 C-3.6875 4.125 -3.6875 4.125 -3 2 C-2.01 1.34 -1.02 0.68 0 0 Z " fill="#4769A6" transform="translate(383,625)"/>
<path d="M0 0 C0.66 0.33 1.32 0.66 2 1 C-3.625 6 -3.625 6 -7 6 C-7 5.34 -7 4.68 -7 4 C-1.7265625 0.77734375 -1.7265625 0.77734375 0 0 Z " fill="#206D7E" transform="translate(683,283)"/>
<path d="M0 0 C0.66 0.33 1.32 0.66 2 1 C-3.75 6 -3.75 6 -6 6 C-5 3 -5 3 -2.5625 1.25 C-1.716875 0.8375 -0.87125 0.425 0 0 Z " fill="#37ADBE" transform="translate(427,438)"/>
</svg>
